<svg viewBox="0 0 400 300" xmlns="http://www.w3.org/2000/svg" xmlns:xlink="http://www.w3.org/1999/xlink"><linearGradient id="a" gradientUnits="userSpaceOnUse" x1="208.49" x2="193.08" y1="185.91" y2="160.1"><stop offset="0" stop-color="#fff" stop-opacity="0"/><stop offset=".99" stop-color="#ffa86a"/></linearGradient><linearGradient id="b" x1="85.18" x2="80.95" xlink:href="#a" y1="186.61" y2="179.53"/><path d="m183.73 83-140.84 81.9a9 9 0 0 0 .11 15.58l172.43 96.52a14.2 14.2 0 0 0 13.66.11l132.46-71.24a10.8 10.8 0 0 0 .33-18.83z" fill="#ffd6a9"/><path d="m186.86 212.08c35.88-23.7 56.62-26 90-50.55-21.15-11-57.08-32.47-70.13-40.63l-88.95 51.95 67.39 39.25z" fill="url(#a)" opacity=".63"/><path d="m219.15 128.29 106.81 61.27-111.71 63.79-116.47-67.19 98.06-57.87" fill="none" stroke="#42210b" stroke-miterlimit="10"/><path d="m293.76 75.26c-9.8 5.8-34 20.15-41.28 24.36a4 4 0 0 0 -2 3.53v99.52c-.15 2 2.15 3.91 4 2.84l40.75-23.2a4.66 4.66 0 0 0 2.69-4.15v-100.52a2.76 2.76 0 0 0 -4.16-2.38z" fill="#68e1fd"/><path d="m282.15 117.43a5.23 5.23 0 0 1 -.92-.08 6.48 6.48 0 0 1 -4.68-4.25 14.14 14.14 0 0 1 -.68-7.83c1.08-6 5.12-10.2 9.2-9.48a6.48 6.48 0 0 1 4.68 4.25 14.14 14.14 0 0 1 .68 7.83 14.14 14.14 0 0 1 -3.34 7.11 6.84 6.84 0 0 1 -4.94 2.45zm2-19.85c-2.78 0-5.65 3.49-6.46 8a12.26 12.26 0 0 0 .56 6.78 4.11 4.11 0 0 0 7.45 1.33 12.26 12.26 0 0 0 2.87-6.17 12.26 12.26 0 0 0 -.56-6.78 4.7 4.7 0 0 0 -3.28-3.13 3.25 3.25 0 0 0 -.56-.02z" fill="#f2f2f2" opacity=".79"/><path d="m258.55 110.31v83.53l9-5.72v-83.01z" fill="#fff" opacity=".6"/><path d="m297.65 76.44-13 7.49v2.77a1.33 1.33 0 0 1 -.66 1.15l-9.92 5.73a.88.88 0 0 1 -1.31-.76v-2l-18.63 10.92a1.18 1.18 0 0 0 -.58 1v99.46a.8.8 0 0 0 1.21.69l43.15-25a4.28 4.28 0 0 1 -1.9 4c-2.24 1.43-41.54 23.66-41.54 23.66s-3.11 1.41-4-2.31v-100.08a4.09 4.09 0 0 1 1.69-3.32c1.8-1.31 41.61-24.58 41.61-24.58a2.82 2.82 0 0 1 3.88 1.18z" fill="#124577"/><path d="m278.06 192.31v24.6" fill="none" stroke="#42210b" stroke-miterlimit="10"/><circle cx="278.06" cy="216.84" fill="#42210b" r="3.22"/><circle cx="214.63" cy="251.92" fill="#42210b" r="3.22"/><path d="m146.83 61.58-.18.29a1 1 0 0 1 .39-.1c-.04-.18-.09-.2-.21-.19z" fill="#6dc3da"/><path d="m146.11 63.89c-.14-.45-.31-.85.24-.93.23 0 .36-.24.53-.41s0-.27 0-.44l-.43.21a.69.69 0 0 1 0-.12q-.42.7-.82 1.42a4.55 4.55 0 0 0 .48.27z" fill="#6dc3da"/><path d="m157.6 123.1.56-3a10 10 0 0 0 .25-1.32 7.32 7.32 0 0 0 -.14-1.13 3.45 3.45 0 0 0 -.12-1c-.13-.21-.57-.4-.77-.53l-1.14-.79a2.27 2.27 0 0 1 -.73-1l-1.41-2.63-1.16-2.17c-.24-.44.17-1.27.27-1.73a3.09 3.09 0 0 1 .23-.92l.66-.85c.49-.63.91-1 .79-1.88 0-.2-.15-.31 0-.46s-.05-.31 0-.41c.06-.27-.54-.52-.47-.78s.06-.29-.2-.44-.19-.1-.39 0a2.06 2.06 0 0 0 -.39.32c-.07.06.13.29.17.37-.38.16-.36.21-.54-.21-.08.23-.46-.16-.67-.2s-.18.1-.25.06l-.35-.27c-.24-.18-.71-.4-.87-.66s-.07-.55-.25-.76c-.45-.52-.72-1-1.35-1.16s-1.3-.17-1.68-.55l-1-1c-.22-.22-.53 0-.8.09-.6.18-1.21-.25-1.78-.48l-1.38-.56a1.75 1.75 0 0 1 -.53-.22l-.9-.92c-.28-.28-.11-.45 0-.84s-.4-.76-.54-1a2.85 2.85 0 0 0 -.48-.57l-1-.9c-.07-.07 0-.28 0-.37s-.16-.26-.21-.32l-.2-.26q0 .91.09 1.82c.12.11.28.28.26.43s-.12.23-.22.22a54.17 54.17 0 0 0 17.45 35.88c.06-.67.14-1.34.26-2z" fill="#6dc3da"/><path d="m154.65 81.91c.34.33 1.07-.3.7-.46l.31-.27c-.21.09-.66.42-.81.36s-.61 0-.89.1c-.59.78.45.04.69.27z" fill="#6dc3da"/><path d="m153.19 82.42a.57.57 0 0 0 -.56.21c-.15.13-.25.29-.47.18a.37.37 0 0 1 .29-.28c-.08-.11-.09 0-.13-.18a3.8 3.8 0 0 0 -.41.63l.33.09-.07.1c.45 0 .64-.18 1-.32a3.52 3.52 0 0 0 1-.56c0-.11 0-.17-.07-.24-.03.21-.71.38-.91.37z" fill="#6dc3da"/><path d="m145 75.9v.16a.17.17 0 0 0 .05-.09c.16.06.11.26.09.42 0-.09.13-.19.23-.14s-.06.24-.08.33a.8.8 0 0 1 .18-.09.52.52 0 0 0 -.16.59c.06.21.19 0 .18-.15h.13c-.09-.19.07-.4-.06-.51a1.54 1.54 0 0 1 -.27-.55c-.1-.25-.59-1.32-.37-1.44h-.05c-.07.09-.09.07-.19.09a.3.3 0 0 1 .2-.23l-.11-.09c-.16.28-.15.37.07.53-.17-.08-.5-.24-.57 0-.13.47-.05.38.29.47-.4.09.09.56.19.76l.14.08c.05-.16.03-.04.11-.14z" fill="#6dc3da"/><path d="m246.68 95.43c0 .15 0 .45-.23.32-.07 0-.15-.38-.18-.47s.16-.09.25-.11a.9.9 0 0 0 -1-.12c-.25.2-.85.5-1 .83 0 .1-.23.53-.18.62l.45.72c.21.34.48.65.72 1s.48.53.5 1c0 .31.19 1 0 1.25a24.81 24.81 0 0 1 -2 1.69c-.23-.24.09-.59-.08-.77l-.67-.73a1.7 1.7 0 0 0 -1.26-.66l.05-.4c-.53 0-.43.1-.48.67a3.77 3.77 0 0 1 -.32 1 1 1 0 0 0 0 .44c0 .28 0 .23.28.22s.3.84.34 1 .58.49.78.65a2.17 2.17 0 0 1 .58.66c.12.3 0 .73.07 1.05a7.41 7.41 0 0 0 .36.91 2.47 2.47 0 0 1 -1.09-.65c-.34-.27-.37-.42-.51-.87a4.27 4.27 0 0 0 -.41-1.24l-1-1c-.14-.16.06-1 .08-1.23a8.93 8.93 0 0 0 -.09-1.36 10 10 0 0 0 -.59-2.41l-.51.63c-.22.27-.2.26-.52.19s-.32 0-.26-.42c0-.16.16-.59.09-.73a3 3 0 0 0 -.79-1.34 3.13 3.13 0 0 1 -.7-1.29c-.19.13-.46.43-.69.46l-1.19.17c-.05 0-.3 0-.34 0s.05.35 0 .42l-.59.6-1.66 1.71a3 3 0 0 1 -.8.4c-.3.14-.19.36-.18.72a4.15 4.15 0 0 1 0 1c-.07.27-.29.7-.22 1a1.89 1.89 0 0 0 .44 1 3.36 3.36 0 0 1 .5.94c.27.63-.8 1.19-.88.33a7.58 7.58 0 0 1 0-1.1c0-.37-.12-.42-.37-.69 0 .26 0 .53-.19.67l-.68.44c-.63-1.19-1.16-2.41-1.7-3.64a6 6 0 0 1 -.46-1 4.77 4.77 0 0 1 0-.83q0-1.18-.07-2.36l-.5.68c-.17.23-.19.2-.46.19s-.67-.6-.88-.84c.22 0 .69 0 .72-.33a1.49 1.49 0 0 1 -.4 0 4.56 4.56 0 0 1 -1-.55c-.2-.11-.33-.63-.43-.85s-1.78.13-2.06.17a5.67 5.67 0 0 1 -1.85-.31c-.27-.06-.57 0-.71-.3-.25-.48-.19-.62-.67-.45a1.81 1.81 0 0 1 -1.04-.13c-.26 0-.43-.37-.67-.48a1 1 0 0 1 -.69-.72c-.14-.3-.2-.7-.52-.75-.56-.08-.55-.06-.94.39-.13.16.33.72.43.88.35.58.64 1.2 1 1.8 0-.27.09-.54.13-.82a2.59 2.59 0 0 1 .2 1.29 3.47 3.47 0 0 0 1.43-.18 6 6 0 0 0 1-1.13c0 .34-.06.9.22 1.09a3.58 3.58 0 0 0 .52.36c.16.07.35 0 .44.18s.18.47.32.5.14.21.13.46-.53.68-.69.87c0-.08-.07-.15-.08-.23a1.66 1.66 0 0 0 -.21.8c0 .3-.11.27-.36.39l-.76.37c-.15.07-.15.5-.29.57s-.31-.1-.43 0l-.56.24c-.26.11-.22.46-.46.54l-1.27.46c-.13 0-.15.11-.23.23s-.23.14-.41.17c-.37.07-.73.19-1.09.29s-.32.37-.61.37c-.45 0-.49.1-.58-.37l-.27-1.43a5.45 5.45 0 0 0 -.88-1.87c-.22-.38-.26-.45-.65-.59-.23-.08-.22-.77-.27-1a3.9 3.9 0 0 0 -.45-1c-.1-.19-.32-.29-.44-.5l-.75-1.36c-.13-.22-.22-.61-.52-.53 0-.28.08-.56.11-.84l-.33 1a4.59 4.59 0 0 1 -.82-1.25c-.27.34.2.91.36 1.21l.93 1.89c.18.38.12.8.39 1.1.12.12.41.33.44.52s.1.64.15 1 0 .54.15.68a3.55 3.55 0 0 1 .57.55 8.21 8.21 0 0 1 .55 1.49c.06.16.5.13.62.26l.52.6c.29.33.87.7.42 1.13.3.09.63.71.87.65l2.48-.66c.15 0 .59-.23.72 0s-.21.93-.25 1.1a8.08 8.08 0 0 1 -.94 1.86 6.41 6.41 0 0 1 -.87 1.43 18.91 18.91 0 0 0 -2.91 3.3c-.17.28-1.23 1.74-1.06 2a1.26 1.26 0 0 1 .27 1.09 1 1 0 0 0 .29.93c.45.61.3 1.55.33 2.31a1.72 1.72 0 0 1 -.88 1.44c-.25.12-.76.24-1 .46l-.74.87c-.22.25-.49.37-.35.71s.43.73.41 1a3.83 3.83 0 0 1 -.13 1.18c-.13.21-.75.36-1 .46s-.27.33-.32.76a3.26 3.26 0 0 1 -.11 1 17.75 17.75 0 0 1 -1.28 1.81 10.51 10.51 0 0 1 -.85.73c-.16.14-.47.53-.67.57l-2.22.47-1 .21c-.16 0-.49-.4-.61-.51-.4-.36-.39-.35-.33-.93 0-.22-.23-.62-.3-.81l-.52-1.29c-.1-.26-.42-.45-.61-.64s-.12-.72-.15-.9l-.23-1.47a6 6 0 0 0 -.72-1.77l-.57-1.15c-.08-.17 0-.49.06-.66a6.58 6.58 0 0 1 .55-2.36c.4-.7.15-1.26 0-2l-.55-2.35c-.06-.24-.37-.52-.51-.7l-.8-1.07c-.14-.19 0-.44 0-.68.06-.49.11-1 .17-1.46s.07-.44-.17-.78-.26-.42-.7-.39c-.25 0-.75.17-.93 0l-.77-.94a5.28 5.28 0 0 0 -1.86.21l-1.11.56c-.29.15-.42.07-.73 0a1.29 1.29 0 0 0 -.86-.08l-1.21.43c-.19.07-.41-.19-.56-.31l-1.16-.84a2.88 2.88 0 0 1 -1-1l-1.48-2.57-.47-.83c-.07-.13.19-.61.24-.74s.34-.65.29-.9l-.41-1.38a4.05 4.05 0 0 1 -.23-1.05 2.24 2.24 0 0 1 .32-.57l1.42-2.58a3 3 0 0 1 1.31-1.14c.3-.19.43-.19.48-.56l.21-1.36c.08-.54 1.15-.63 1.36-1.16.15-.36.21-.87.58-1 .1 0 .36.47.66.4.13 0 .43-.16.56-.1s.34.24.4.2a10 10 0 0 1 .88-.52 6.78 6.78 0 0 1 1.83-.57 1.76 1.76 0 0 1 .57-.06 1.45 1.45 0 0 0 .45.15c.15 0 .3-.18.44-.21a2.1 2.1 0 0 1 .41 0 1.55 1.55 0 0 0 1-.12c.28-.17.55.05.84.18-.22.48-.26.49 0 .95.11.21-.33.52-.47.68.23.21.52.6.82.67l1.51.4c.39.1.28.53.67.7s.66.09 1 .31.67.39 1-.17c.07-.13-.15-.33-.08-.45s.17-.41.27-.44a1.91 1.91 0 0 1 1.22-.08c.11 0 0 .26.15.28l.69.14c.18 0 .19.13.29.31s.23-.12.31-.09l1.1.32a.83.83 0 0 0 .84-.07c.42-.21.46-.27.88-.07a1.07 1.07 0 0 0 1.49-.47c.14-.39.83-1.61.56-2s.2-.8.12-.89-.24.07-.32.13-.24-.13-.35-.11-.26.32-.39.39a1.67 1.67 0 0 1 -.51 0c-.32 0-.45-.33-.74-.38s-.35-.15-.43.07-.08.24-.33.29-.64-.29-.83-.4c-.36-.21-1-1.25-.6-1.69h-.39c-.06-.43.5-.55.74-.56a1.93 1.93 0 0 0 1.07-.24l-.37-.19c.08-.21.53-.12.73-.09.38.05.4-.05.7-.25a1.36 1.36 0 0 1 .7-.31 2 2 0 0 0 .87 0c-.07.12.05.23.18.3s.13-.17.34.12c.08.11.65.19.83.27s.5-.06.82 0a1.29 1.29 0 0 0 .9-.28c.25-.16.11-.6 0-.77s-.5-.3-.74-.53-.46-.55-.81-.59a3.36 3.36 0 0 1 -.35-.21c-.14-.09-.27-.2-.4-.3l.11-.16.38.08c-.12-.41.15-.54.45-.53-.14-.12-.34-.23-.41-.39h.38c-.09-.29.29-.08.34-.26s-.24-.12-.33-.1a1.22 1.22 0 0 0 -.89.36v-.11a1.34 1.34 0 0 0 -.77.4l.06-.14c-.36 0-.2.41-.05.58s.47.11.77.11c-.21.38-.46.1-.69.22s-.72.56-1 .34c.16-.45 0-.39-.42-.57.18-.1.89-.35.41-.52a1.35 1.35 0 0 0 -.48 0c-.11 0-.27-.17-.36-.23.2 0 .44.12.55-.1-.21.11-.75-.14-.88 0s-.55.47-.58.69a1.88 1.88 0 0 1 -.08.52c-.07.1-.35.09-.37.21-.08.39-.06.67-.37.88s-.23.56-.09.85.59.41.56.5c-.08.25-.53-.07-.7.09l-.73.68c0-.26.12-.31.3-.42-.14-.06-.3-.06-.47-.12a4.47 4.47 0 0 0 -.62-.1c-.11 0-.26.06-.36.1s0 .22 0 .27-.34 0-.51-.1c-.19.21 0 .4.13.6s.17.26-.06.5c.3.21.64.29.57.73-.18-.14-.31-.31-.5-.07.24 0 .26.19.09.33s-.09.22 0 .44c-.2 0-.36 0-.45-.21s-.17-.13-.32 0c-.16-.54-.27-.59.15-.93-.39 0-.39 0-.62-.4-.13-.2-.23-.53-.4-.67s-.19-.44-.16-.86-.09-.38-.38-.61a3.06 3.06 0 0 0 -1.29-.78c-.12 0-.39-.38-.44-.51a1 1 0 0 0 -.43-.7c-.13.39-.29.2-.34-.09s0-.21-.3-.13-.48.11-.29.45c.07.12-.17.4 0 .56a2.85 2.85 0 0 1 .59.45c.13.19.11.48.29.64s.32.33.59.35.48 0 .21.22c.25.2 1.49.72 1.18 1.14-.13-.07-.49-.56-.63-.42a.56.56 0 0 0 -.22.38c0 .18.07.17.2.27.36.28-.25.36-.22.53s-.46.67-.44.27a.51.51 0 0 0 -.17.68c.12.24-.37.32-.43.13-.11-.36-1.29-.31-.83-.83a2.19 2.19 0 0 0 1.47 0c.15-.1 0-.21.18-.3s-.17-.8-.25-.81-.34 0-.31-.17a.19.19 0 0 0 -.29-.19c0-.16-.33-.43-.47-.41s-.4-.22-.58-.4-.77-.48-.87-.92-.1-.44-.44-.62c-.18-.1-.4-.17-.53 0a4.49 4.49 0 0 1 -1.15.76l-.93-.31c-.16 0-.41.29-.52.4s.12.53 0 .7-.54.27-.71.36c-.5.26-.66.67-1 1.19-.09.15.3.29.11.55s-.42.41-.33.6c-.11 0-.37 0-.43.14s-.18.38-.28.39a7 7 0 0 1 -1 0c-.29 0-.45.34-.68.41s-.57-.39-.32-.57c-.25.12-.37-.3-.68-.12s-.44-.07-.66.1a2.06 2.06 0 0 0 .07-.56v-.31c0-.11-.12 0-.16 0-.19-.29-.05-.36 0-.69s.31-.81.18-1.11a1.55 1.55 0 0 1 0-.9c-.18.14-.29-.13-.22-.3s.39-.16.51-.17l-.05-.1c.3-.27.45.1.71 0a1.25 1.25 0 0 1 .88 0c.29.09.52-.05.78 0a1.62 1.62 0 0 0 .7.08c.5-.11.44-1.09.43-1.49s.06-.5-.29-.61-.23-.44-.19-.55c-.19 0-.12-.07-.2-.11s-.31-.05-.34-.08-.21-.2-.4-.19a.27.27 0 0 1 -.31-.15h.16a.32.32 0 0 1 -.21-.3 1.17 1.17 0 0 0 .63-.11c.38-.27.16.22.41.15.09 0 .56-.1.54-.23a2.19 2.19 0 0 0 -.19-.59c.1 0 .29 0 .33.09s0 .17.17.18a1.07 1.07 0 0 0 .67-.09c-.07 0-.13-.05-.19-.06a1.42 1.42 0 0 1 .61-.36c.29-.14 0-.34.13-.57s.52-.21.65-.27a1 1 0 0 1 .62-.08c-.09 0-.33-.06-.34-.16s.23 0 .25-.07 0-.15 0-.21a1.26 1.26 0 0 0 .25-.59c0-.12.23-.1.31-.19.26-.32.53-.13.84-.23 0 0 0-.16.08-.18h.26a1.52 1.52 0 0 1 .41 0c0-.25.16-.18.34-.21-.09 0-.36-.26-.23-.36s0-.15 0-.37.07-.36-.13-.52-.12-.22-.13-.43.06-.76.43-.78.53-.32.8-.46c-.19.28-.29.88.12 1-.24.39-.7.52-.62 1s.42.7.77.54l-.14.31c.35.2.64-.29.94-.33a.63.63 0 0 1 .43.28c.06.2.24.25.41.34a.57.57 0 0 0 0-.19h-.29c.21-.13 1-.15 1.11-.34a1 1 0 0 1 1.25-.24l-.17-.03c0 .33.45.37.62.17s.09-.27.13-.31.13 0 .17 0 .26-.15.34-.28a.86.86 0 0 1 -.21.31c.55.27.22-.74.21-1a.69.69 0 0 1 .17-.51c.12-.14 0-.36.21-.5.49-.36.61.44 1 .47.2 0 .34-.27.31-.45s.08-.57 0-.6-.16.09-.2.06a2.47 2.47 0 0 1 -.22-.23c-.05-.06-.15-.47-.1-.49a2.37 2.37 0 0 1 1.14-.32l.84.1c.38 0 .06-.09.29-.24s.36 0 .54-.14.39 0 .53.05c-.08-.26-.6-.35-.82-.45 0-.06 0-.16.08-.21-.78.15-1.58.34-2.38.5-.08 0-.41.14-.46.05a.73.73 0 0 0 -.46-.4c-.31-.13-.28-.1-.23-.46a1.2 1.2 0 0 0 0-.6 2.41 2.41 0 0 1 -.18-.72c0-.15.35-.4.45-.52.25-.29.6-.47.84-.78.13-.15.32-.52.48-.6s.4.08.31-.24a.78.78 0 0 0 -.8-.59c-.54 0-.59 0-1 .38-.24.27-.37.49-.17.83s-1.3 1.07-1.42 1.23c-.37.46-1 1.21-.59 1.9.17.3.66.29.82.63s-.3.45-.48.6-.54.37-.6.79a5.16 5.16 0 0 1 -.17 1.14c-.18.42-.5.42-.86.5-.14 0-.14.21-.18.35s-.16.12-.32.14-.28.08-.33-.2a1.27 1.27 0 0 1 0-.53c.11-.3-.32-.65-.49-.88s0-.28-.08-.4a2.5 2.5 0 0 1 -.23-.47c0-.15.1-.42-.07-.45s-.17-.29-.22-.44c-.1.4-.18.44-.5.67s-.4.4-.63.54-1.25.1-1.27-.44-.28-1.33-.25-2 .07-.58.49-.93a3.65 3.65 0 0 1 .75-.44 2.44 2.44 0 0 0 .85-.54c.22-.25.45-.49.7-.72a7.84 7.84 0 0 0 1.14-1.73 11.66 11.66 0 0 1 1.33-1.57 4.81 4.81 0 0 1 1.48-1.43 16.27 16.27 0 0 1 2-.75c.27-.08.41-.51.65-.66a1.47 1.47 0 0 1 .85-.15 2 2 0 0 0 -.6 1c.3-.06.57-.57.76-.82q0 .23.09.46l.41-.55c.06-.08.41 0 .51 0l-.25.43c.36.28.15-.4.45-.28l.94.37c.26.11-.23.35-.33.38a2.88 2.88 0 0 1 -.77-.07c.12.21.36.14.46.39 0 .06.34 0 .45 0 .27 0 .52.14.7-.1s.41.13.53.19c-.07.25-.3.09-.48 0-.08.52.82.32 1.06.32a2.22 2.22 0 0 1 1.19.4 6.46 6.46 0 0 0 1.24.59 1.35 1.35 0 0 1 .92.72c.13.39.11.38-.11.72s-.18.34-.4.41a1.63 1.63 0 0 1 -1.14.07 10.61 10.61 0 0 1 -2.51-.85c.25.25 1 .72 1 1.09s-.06 1.13.28 1.28.88.61 1.26.45c.22-.09.11-.45-.11-.45s-.32-.2-.47-.4c.35-.32.37-.25.81-.1l1.05.37a5.5 5.5 0 0 1 -.27-.8l.79-.53c.14-.09.4-.36.56-.31l.84.25c0-.16.17-.46.11-.61s-.29-.49-.31-.43c.06-.26.13-.51.19-.77 0-.09-.28-.36-.34-.44l1 .13c.25 0 .42.42.58.63-.17 0-.66 0-.75.13s.13.42.29.63.44.08.7 0 .09-.28.26-.51.37-.17.48-.22l.92-.42 1.4-.63c.13.44.13.44.54.54s.41-.43.64-.41a1.32 1.32 0 0 0 .87-.06 1 1 0 0 1 .85-.07l-.18.31c.43.13.41.15.7-.23s.09-.39-.17-.73a3 3 0 0 1 2.09.08l1.25.5a4.74 4.74 0 0 1 .87.66c0-.16.18-.69.05-.78l-.92-.69c-.2-.15.12-.58.21-.79s-.4-.36-.54-.45l.91-.72c.21-.17.29-.75.38-1s1.55 0 1.89 0l-.39 1.06c-.07.19.25.61.33.79s-.35 1.7-.1 1.87.63.23.48.61c-.09.21-.19.7-.38.82l-1 .6c-.14.09-.58-.06-.75-.08a1.51 1.51 0 0 0 1.45.45 4.38 4.38 0 0 0 1.27-1.1c.37-.37-.58-.94.2-1.17.15 0 .57-.27.69-.14l.59.69c0-.3 0-.59-.25-.76a.7.7 0 0 0 -.73-.17c-.09 0-.85.18-.87.11s-.25-.58-.15-.78.41-.58.24-.83-.54-.59-.4-.81.46-.34.76-.46 0-.62 0-.75c.17 0 .49.41.39.59-.23.43-.2.42 0 .85s1.36.29 1.66.32a13.37 13.37 0 0 1 -1.28-.53c-.49-.23.36-.59.55-.65a1.75 1.75 0 0 1 1.41.18 3.14 3.14 0 0 1 .51.31c.16.11.38 0 .56 0a2.26 2.26 0 0 0 -.23-.63c-.11-.11-.53-.09-.68-.11s-.24-.9-.27-1.12l2-.2 1.11-.11c.25 0 .15-.28.15-.53 0-.48 0-.49.35-.71a54.31 54.31 0 0 0 -75.39-9.15 2.24 2.24 0 0 1 .81 0 11.2 11.2 0 0 1 1.83.49 5.25 5.25 0 0 1 -1.59.81l-2.11.16 1 .16-1.65.49 2.7-.54c0 .44-1.21.74-1.58 1a3.87 3.87 0 0 1 -.94.58l-1.05.22h.66a2 2 0 0 1 -.67.53c-.21.11-.49-.05-.71-.11l.1.33c-.58.12-1.16.18-1.74.24.32 0 1.13-.06 1.06.31h-1c.24.06 1 .09 1 .45l-.87.11.5.27a1 1 0 0 1 -.66.49c-.18.06-.57-.2-.68-.11s.32.25 0 .51c-.1.09-.63.47-.52.63s.13.13.31 0 .19 0 .35.07.08.29.09.4-.23.13-.3.15-.19-.1-.22-.09-.12.19-.21.22l-.87.27c.06-.26.15-.34-.05-.5s-.25.17-.45-.05c0 .32-.31.24-.49.08l-.73.86h.07c.27-.1.49 0 .75-.05a1.76 1.76 0 0 1 1.66.51l-.36.27a.75.75 0 0 1 .43.17c-.26.09-.36.06-.44.34 0 .13-.6.14-.72.16a1 1 0 0 1 -.55-.11c-.23-.08-.06-.42-.37-.42 0 .12 0 .25.07.37-.23 0-.69.25-.77-.08-.09.33-.5.24-.66 0v.22h-.22l-.82 1.08a1.6 1.6 0 0 1 .33-.2 2.16 2.16 0 0 1 1.39-.17l-.11.43a5.71 5.71 0 0 0 1.12-.38 1.53 1.53 0 0 1 .55 0c.21 0 .16.29.27.44s.21.14.31.36.11.32-.05.62.07.25.22.1.24-.25.56-.06c.09.05.35-.27.43-.35s.44-.08.59-.1a1.57 1.57 0 0 1 1 .4c.19.18.64.89.83.83s.88-.18 1 .27c-.11.07-.59.27-.55.4.11.3.46.06.56-.17s1.16.39 1.37.49c-.09.29-.48.29-.71.37.18 0 .39 0 .32.26.19-.1.46-.15.5-.42.18.12.46.24.45.51a.92.92 0 0 0 -.72.19 1 1 0 0 0 .5.13c.32-.06.3-.07.42.27l-.63-.13.07.42-.44.05c.52.24 1.05.44 1.59.64a1.12 1.12 0 0 1 .54.4c.23.25.38.24.7.28l-.21.33a2.43 2.43 0 0 1 .81 0c.33.14.2.35.16.71-.16 0-.42-.14-.53 0l.38.18c-.38.2-.53.39-.89.14a2.09 2.09 0 0 1 0 .85 2.35 2.35 0 0 1 -1-.76c.19-.09.48-.12.39-.42-.12 0-.39.21-.51.18s-.32-.35-.48-.43-.31-.12-.42 0 .13.23.14.5l-.41-.05.13.42c.21-.08.25-.18.33.06l.19.6c.06-.31.22-.17.4-.09s.21.17.26.45.25.15.36.33a2.33 2.33 0 0 1 .08.65l-.25-.33c-.15.26.23.33.12.6-.06 0-.13 0-.18-.05l.12.31c-.11 0-.38-.33-.55-.43l-.9-.57c0 .08 0 .18.08.26l-.53-.24.3.52c.07.12.35.1.46.18l.55.39c.18.13.11.22.08.45l-1.44-.29c-.18 0-.17-.27-.28-.3l-.75-.19.08-.13a1.07 1.07 0 0 1 -.63-.23l.4-.2c-.23-.12-.49-.1-.63-.32-.25-.39-.25-.63-.64-.37 0-.17-.09-.26-.25-.23v.23c-.22-.05-.47-.2-.65 0s-.49.12-.74.13-.42-.31-.34-.46.44-.27.4-.52a3 3 0 0 0 1.14.08c.09 0 .64-.11.67-.19s-.32-.38-.41-.45l.91-.92c.08-.08.22-.14.16-.25l-.38-.71c-.2-.36-.6-.26-.79-.58s-.12-.23-.37-.13l-.56.21c0-.47.08-.4.49-.52-.22-.18-.7-.81-1-.53 0-.13 0-.25-.07-.37s-.23 0-.3 0-.2-.57-.51-.27c.25.07.28.2.4.44a2.68 2.68 0 0 1 -1.55-.16l.44.42c-.2.07-.25-.18-.43-.2s-.11.18-.19.15l-.36-.14a4.13 4.13 0 0 0 -1.21-.07 1.28 1.28 0 0 1 -.55-.15c-.22-.2.07-.31-.33-.27-.18 0-.28.19-.5.06a1.71 1.71 0 0 1 -.72-.68l1.15.1c-.38-.41-.73-.35-1.26-.41-.06 0-.11-.58-.13-.66s.2-.56.27-.74v-.06q-.75 1.05-1.46 2.14c.16.18.36.35.47.48l-.67.45c.22.09.4.23.6.09s.39 0 .6.14l-.32.22c.21.18.33.19.26.48s-.12.35.14.51a1.1 1.1 0 0 0 .26-.6c0-.1.1-.52.28-.41s.53.23.56.38.21.53-.09.63c0-.06 0-.12 0-.18-.62.35.76 1.59.82.92 0-.19 0-.3.13-.42s.27-.19.27-.29c0-.5 0-.48.43-.66-.17-.27-.33-.39-.26-.71s.24-.24.52-.19.68 0 .81.16a.94.94 0 0 0 .66.4c-.14.26.09.43-.07.62s-.43.07-.57.09a2.06 2.06 0 0 0 .42.71c.22.21.33.38.08.69a3 3 0 0 1 -.77.47c-.21.13-.36-.15-.53-.31l.26.59-.4-.21.05.16-.41-.1c-.09 0 0-.26-.11-.25s-.49-.08-.6.16l.38.22a1.64 1.64 0 0 1 -.46.58c-.3.17-.41 0-.73-.14a3.13 3.13 0 0 0 -1.46-.26l1.12.57a3.61 3.61 0 0 0 1 .13c-.12.2-.32.76-.52.85s-.27.17-.4.17-.31-.07-.44 0c-.41.29-.45.31-.92.17l-.89-.24.59.27s-.07.09-.12.13a.66.66 0 0 1 .65.09c.15.08.38.3.13.42a1.15 1.15 0 0 1 -.68.11c-.09 0-.25.33-.3.41a4.15 4.15 0 0 0 -.71 1.23c-.11.51-.21 1-.32 1.54.21 0 .66.05.81.19s.27.76.36 1c.15.42.24.27.64.18.21 0 .45.1.64.17a5.8 5.8 0 0 1 1.56.8c.17.12.49.47.69.49l.89.1c.11 0 .68 0 .67.13 0 .41 0 .83-.05 1.24 0 .58.55 1 .89 1.43s1-.35 1-.7l-.18-1.11c0-.2-.29-.46-.4-.62.36-.24 1.06-.5 1.32-.86a1.53 1.53 0 0 0 0-1.49 4.39 4.39 0 0 1 -.56-.6c-.23-.32-.3-.29 0-.56s.34-.25.22-.67c-.06-.23-.21-.5-.13-.73a1.12 1.12 0 0 0 0-.91c-.08-.26.08-.35.35-.39.49-.06.94.37 1.43.14.31-.14.39 0 .67.22s.52.26.56.44.22.48.52.43a1 1 0 0 1 .63.19c-.13.22-.21.28-.16.53a1.18 1.18 0 0 1 0 .68h.2c-.12.15-.46.39-.27.56.31-.94 1.44 1.11 1.68-.16.05.06.15.06.2.12.13-.27.33-.53.28-.83s.27-.63.48-.58l-.08.34c.49 0 .82 1 1 1.43.13.22.52.67.54.93s-.24.34-.21.47.26.21.3.24a1.8 1.8 0 0 1 .4.32c.09.15-.06.31.14.32a1.33 1.33 0 0 1 .85.24c.21.15.64.35.17.42a5.11 5.11 0 0 0 -.77.23c.16.06.36-.06.53-.11-.11.21-.48.23-.69.29s-.14.46 0 .32a.52.52 0 0 1 .3-.19c.12 0 .08-.11.15-.15a1.44 1.44 0 0 1 .6-.17.31.31 0 0 1 -.22-.12c.15 0 .44 0 .5.19s-.17.21 0 .39c.17-.31.37-.15.63-.06s0 .47 0 .59.18.31 0 .58a1.62 1.62 0 0 1 -.58.36c-.2.05-.4 0-.64.08a1.13 1.13 0 0 0 -.5.41 1.16 1.16 0 0 1 -1.17.39 9.13 9.13 0 0 0 -1.54 0c-.46 0-.94-.13-1.07.49 0 .16-.48.21-.61.3a4 4 0 0 0 -.55.59 6.81 6.81 0 0 1 -.84 1c.62-.3 1-1 1.58-1.27.43-.21 1.59-.86 1.89-.09l-.16-.06c.31.21-.11.37-.27.51s-.37-.13-.6 0c.09 0 .32.28.33.27a.71.71 0 0 1 .43 0 .74.74 0 0 1 -.28.44h.24c-.12.33.23.59.48.65l-.08.06c.36.18.72.32 1 .09v.17a.49.49 0 0 0 .21-.06c-.22-.28.22-.68.37-.91.28.1.12.35.06.58.21-.16.5.16.32.23a1.24 1.24 0 0 1 -.71.2c.06 0 .09.13.14.18l-.79.24a1.07 1.07 0 0 0 -.33.16c-.13.11-.16-.15-.27-.06s-.38.47-.6.68-.29-.06-.38-.09c-.31-.44.44-.83.69-1s.09 0 .18.1.27-.06.42-.19c-.2 0-.45-.08-.62 0a.7.7 0 0 1 .16-.32c-.23-.06-.52.24-.71.37s-.12-.1-.27.07-.24 0-.34 0c.15.48-.66.31-.77.52l-.1-.1c-.13.26-.24.29-.48.38s-.17.18-.23.35-.56 1.1.07 1l-.05-.12a.72.72 0 0 1 .13.15c-.19.13-.41 0-.61 0s-.07.27-.21.28a1.8 1.8 0 0 0 -1.07.33c.29 0 .52-.18.8-.22l-.09.07h.23a1.24 1.24 0 0 1 -.54.21c-.18 0-.49-.05-.59.14.43 0-.19.87-.35 1 .1-.18-.21-.3-.28-.51 0 .25.33.6.22.83a5.12 5.12 0 0 0 -.39.76 1.31 1.31 0 0 1 .15-.48c-.11-.07-.06-.3-.28-.24a2.15 2.15 0 0 1 .11-.5s.16-.36 0-.24c-.37.27-.26.44-.16.89a1 1 0 0 0 -.35-.18c.09.14.32.18.39.31s-.08.4 0 .5.3.09.24.39-.2.22-.41.29c.18 0 .5-.06.45.21 0 .11-.4.12-.5.14.06 0 .1.09.16.12s-.13.08-.23.08c.09.22.22 0 .37.11l-.31.17c-.08 0-.19-.09-.26-.05s-.25.37-.34.49-.29.05-.4.2a1.45 1.45 0 0 1 -.34.39 1.7 1.7 0 0 0 -.85 1 1.34 1.34 0 0 0 .07 1 9 9 0 0 1 .49 1.33c.07.25.14.89 0 1.07s-.25.32-.41.09c-.05-.07-.34-.33-.35-.36a3.15 3.15 0 0 0 -.22-.53c-.09-.19-.18-.31-.13-.54l-.1.09c-.09-.29.18-.72-.11-.92s-.4-.53-.71-.43-.34.18-.49.07a2.15 2.15 0 0 0 -.47-.31c-.27-.07-.72.28-.8-.17-.05.4-.93.11-1.19.32.18 0 .86.1.35.34.05 0 .33.12.34.17a.15.15 0 0 1 -.19.18c.07-.18-.2-.25-.33-.33v.27c-.12-.26-.23 0-.4-.11s-.3-.31-.55-.22-.33-.08-.46-.13-.64.19-.88.29c-.39.16-1.33.86-1.33 1.42 0 .17.23.35.24.52a1.63 1.63 0 0 1 -.12.42 3.58 3.58 0 0 0 -.22.95 3.41 3.41 0 0 0 .56 2.08c.26.4.36.68.8.8.09 0 .23.25.31.22l.53-.2a1.61 1.61 0 0 1 .48-.11c.13 0 .23.16.29.13a1 1 0 0 0 .23-.11s-.06-.14 0-.2a.71.71 0 0 0 .29-.39c.1-.34.07-.75.44-.89a2.75 2.75 0 0 1 .8-.16c.21 0 .79-.1.61.35-.07.17-.31.69-.44.71.07 0 0 .1.18.1-.06 0-.1.11-.15.15l.08-.06a3.41 3.41 0 0 0 -.17.64.41.41 0 0 1 -.1-.37 1.25 1.25 0 0 0 -.14.24c.28 0 0 .54.05.74s-.21.5-.33.62a6.56 6.56 0 0 0 1.2.1c.17 0 .29-.12.45-.1a2.35 2.35 0 0 1 .6.09.75.75 0 0 1 .53.84c0 .27-.09.54-.13.81s-.15.29-.17.44c-.09.74.8 1.93 1.47 1.66.41-.17.62-.34 1.06-.21a1.83 1.83 0 0 1 .89.7c0-.52.62-1.23.87-1.65.08-.13.56-.21.69-.26l1.05-.38c.32-.12.9.16 1.22.24l2.49.58a2.41 2.41 0 0 1 1.25.44l1.94 1.87c.41.39 1.3.4 1.82.53s.87.93 1.18 1.33l.94 1.22c.07.1.24.43.36.47l2 .72 2 .72a8.42 8.42 0 0 1 1.62 1.16c.09 0 .71 0 .73.09.07.3.14.6.21.89.15.65.16.63-.19 1.15l-1.3 1.88a1.84 1.84 0 0 0 -.48.9c-.07.92-.13 1.85-.2 2.77 0 .61-.68 1.24-1 1.73-.14.21-.25.56-.5.57s-.79-.07-1 .07l-2.01 1.31c-.12.09-.12 1-.14 1.16s0 .52-.11.68l-1.52 2-1.39 1.79c-.11.13-1.57-.49-1.79-.56-.13.5.7.55.79 1a3 3 0 0 1 .17.83c0 .19-.32.47-.42.62-.31.45-.72.44-1.21.57a2.14 2.14 0 0 1 -1.19 0c.09.31.17.43.06.72s0 .48-.09.55c-.48.34-.76.19-1.27-.06a3.93 3.93 0 0 0 0 .83c0 .18.33.48.26.65l-.46 1c-.15.33-.2.29-.54.38a.43.43 0 0 0 -.12.06 54.33 54.33 0 0 0 83.64-23.06c-.41-.39-.79-.79-1.17-1.2a2.83 2.83 0 0 1 -.55-.7 4.69 4.69 0 0 0 -.51-1.12c-.09-.1-.24 0-.28-.2l-.18-.66c-.1-.37-.57-.29-.59-.7s-.44-.45-.64-.62-.6-.72-.5-.87.71.15.84.17c.43 0 .36.21.59.54a6.26 6.26 0 0 0 .71.65c.25.24.55.33.75.6s.23.13.4.16.09.09.26.22.26 0 .26.27.3.11.34.34-.15.21-.12.41.28.17.38.21.1.38.12.48.26.18 0 .41a.37.37 0 0 1 .49-.09l.06-.17s0-.07-.07-.06a.25.25 0 0 1 -.23-.06c.1-.13.16-.35.31-.13 0 0 0-.09 0-.14a.16.16 0 0 1 .14 0 54 54 0 0 0 2.76-12.74l-.46.17c-.19.03-.15.03-.1.26zm-38.19-8.37c.08-.15.45-.07.55-.06s.41-.16.56-.23c-.14.13-.38.23-.25.47-.09.03-1.11.32-.86-.18zm-4.16-.31a.85.85 0 0 0 .71.19c.16 0 .53 0 .52.23a3.75 3.75 0 0 1 -1.35-.17.74.74 0 0 1 .11-.25zm-7.45-4.09a1.79 1.79 0 0 0 .32-.27c.08-.11 0-.22.1-.25a1.92 1.92 0 0 1 -.11 1c-.19-.01-.49-.32-.31-.47zm-.19.82.15.06c.14-.09.72-.4.66.11l-.09.75c0 .24-.23.12-.24.25s-.17.21-.32.08 0-.2 0-.43c0 0-.12-.11-.12-.15s.15-.22.13-.29-.27-.1-.18-.37zm-2.24.84-.26.22-.3-.24c.26-.15.38-.3.56.02zm3.39-10.53c-.13 0-.33-.25-.35-.37.15-.08.3-.13.34 0a.17.17 0 0 1 .01.37zm6.3-2.68c-.23.15-.53.22-.68.47a.38.38 0 0 0 -.12-.45 1.08 1.08 0 0 1 .8-.02zm-1.53-1.36h-.08v.16c-.39-.25.04-.49.08-.16zm-.56 1.82c-.11.15-.26.25-.1.43a1 1 0 0 0 -.41.33c-.02-.39.03-.88.51-.76zm-3.91 1.75a.2.2 0 0 0 .12-.25.44.44 0 0 1 .17 0c-.07.14 0 .21.12.22-.32-.64.77 0 .1.11.06 0 .09.12.15.16-.27 0-.25.27-.28.51 0-.2 0-.38-.21-.36s-.21-.25-.16-.39zm18.34-11c-.32-.32-.22-.52.14-.67a1.12 1.12 0 0 1 .62.31c-.11.04-.59.48-.75.32zm5.72-.89c-.22.19-.84-.32-.91-.52l.28-.17c.1.03.86.45.64.65zm4.92-3.75a.49.49 0 0 1 .56.35l-.82.15c.04-.37-.04-.51.27-.55zm-3.12-8.57c.09-.05.1-.29.19-.35s.36 0 .47 0c0 .33.11.45-.19.52l-1 .22a1.49 1.49 0 0 1 -.21-.2c.24-.42.5-.05.74-.19zm-.92.39c-.18.2-.67.56-.87.31s-.21-.1-.39-.09-.18-.18-.24-.35a4.67 4.67 0 0 1 1-.38c.26-.06.72.28.51.51zm-1.78.61c-.31.06-1.16.33-1.29 0s1.14-.4 1.26-.41l.36.19-.46.07c.07.04.1.11.14.16zm.67.17-.27.14a2.26 2.26 0 0 1 -.23-.18c.18-.03.41-.18.53.05zm-1.25-2.13c.36-.26.53-.16 1-.09l-.78.19.38.34-.64.26-.8-.11c.28-.18.57-.37.86-.58zm-.68.81a2.94 2.94 0 0 1 1 .22 2 2 0 0 1 -1 .37l-1-.25c.36-.37.53-.3 1.02-.3zm-.8.91-.36.29-.66-.09c.47-.35.49-.38 1.03-.18zm-.87 8.86c.15-.29-.14-.31.18-.54.08-.06.58-.34.55-.44-.06-.27-.16-.4 0-.59l.68-.75a12.43 12.43 0 0 1 1-1 4.83 4.83 0 0 1 1.31-.55 3.38 3.38 0 0 1 1.37-.24 4 4 0 0 0 1.64-.62c.21-.17 1.4-.44 1.35.18s-1.2.72-1.49.82c-.57.2-1.16.36-1.74.54a5.13 5.13 0 0 0 -1.2.77 3.2 3.2 0 0 0 -.78.5c-.18.24-.36.49-.56.72s-.88.87-.86 1.45c0 .74.45 1 1 1.41-.33.28-1.12 0-1.49 0a1.68 1.68 0 0 1 -1.09-.58c-.27-.29-.31-.3-.28-.71s.32-.1.42-.35zm-2-9.42a1.76 1.76 0 0 0 .86-.13c.31-.08.47.07.72.24l-1.38.33.11.39a3.1 3.1 0 0 1 -1.15-.18l.7-.47-.88.23-.64-.17a2.8 2.8 0 0 1 1.66-.23zm-16.43 14.17a.89.89 0 0 0 .1-.18c-.09 0-.06-.06-.13-.11.18 0 .31-.07.3-.31.04.32-.07.39-.27.6zm.35-.45a.73.73 0 0 1 0-.25.74.74 0 0 1 .18 0c.06-.16.16-.26.31-.25zm3.54-2.57c.2.06.17 0 .33-.13 0 .16-.13.21-.24.32s-.43.09-.49-.21a.8.8 0 0 1 .4.02zm-.44.29a1.72 1.72 0 0 0 .56-.06c.17-.09.18-.28.39-.28a1.56 1.56 0 0 1 -1.1.59c.15 0 .24-.11.15-.25zm-.51.17c0 .18 0 .25-.18.16v-.15a.57.57 0 0 1 .18-.01zm-.19.28-.42.2-.3.1c.14-.2.5-.44.72-.3zm-.36-.08a.25.25 0 0 1 -.24.17 1.16 1.16 0 0 1 -.17-.07c.08-.22.26-.22.41-.1zm-.47.11c.24.09.1.16 0 .32h-.34a2.89 2.89 0 0 0 .34-.32zm-.66.34c.16-.05.27-.12.36.08-.11.09-.63.61-.61.23s.05-.24.26-.31zm-.15.56.39-.33-.56.6c-.05-.17.01-.27.18-.27zm-.25.34a.26.26 0 0 0 -.33.13c-.13.17-.2.11-.4.07.12-.13.09-.07.11-.24h.13c-.05-.17 0-.3.18-.3l-.07.36c.18-.09.11-.25.21-.31s.22.15.18.29zm-.19-.63v.12l-.28.23c-.11-.27.12-.28.29-.36zm-.57.23c.17.14.21.29 0 .42l-.31-.06zm.06.51-.4.26c0-.33.2-.27.41-.27zm-.75.22c.09-.09.18-.11.26 0a.23.23 0 0 1 -.28.15s.02-.12.03-.16zm-8.12 7.89h-.08.22c-.11.06-.13.08-.24 0s0 .07 0 .1l-.07-.1c-.06.03.01-.15.18-.02zm-1.4 1.16h.14c0-.08-.05-.19-.1-.27a.35.35 0 0 1 .34 0c-.07-.05-.12-.14-.18-.2v-.13h.15c-.08-.18.11-.37.15-.14.15-.08 0-.06.14 0a1.09 1.09 0 0 1 .7-.13c-.06.33-.46.38-.51.59h-.16a1.42 1.42 0 0 1 .23.07c-.07 0-.11.15-.18.21.1-.2 1-.31 1.12-.11s-.57.73-.4 1.08a.34.34 0 0 0 -.27.18c.54.08.8.13 1 .73s.63.52.72 1.09a.26.26 0 0 0 -.34-.11c.22 0 .66.38.37.59.07.08.84-.22.78.23s-.27.56-.59.8c.13 0 .79.15.36.33a5.09 5.09 0 0 1 -.87.21c-.19 0-.22-.14-.39-.15s-.36.18-.48.24c-.39.19-.47-.25-.68.29-.38-.28-.67.28-.94.09.15-.17.49-.34.54-.55.1-.39.42-.26.73-.22a.74.74 0 0 1 .22-.35l-.48.17s-.26-.13-.35-.13l.08-.06c-.22-.12-.41.21-.55 0 0 0 0-.07 0-.12s.45-.11.53-.23 0-.27.05-.49l-.33.06c.17-.12.26-.26.07-.42a.19.19 0 0 1 .27.12c.15-.12.29 0 .46 0v-.12c.09 0 .06 0 .14.09h.05a.54.54 0 0 1 0-.64c-.28.21-.52-.49-.07-.6-.26 0-.49.21-.68.08.07.21-.12.06-.24 0v.16c-.26-.2 0-.23 0-.45s0-.16 0-.34-.06-.19.08-.2a.79.79 0 0 0 -.06-.18c-.16.34-.36.15-.12 0-.2.08-.19.26-.22.43s0 .45-.14.3 0-.12 0-.21 0-.19 0-.33.09-.44.28-.55v-.07c-.13.12-.22.29-.39.18.28.17-.05.3-.18.18.21 0 .2-.13 0-.17.06-.09.22-.14.24-.21a.64.64 0 0 1 .17-.34h-.11.08c-.13-.18-.19-.13-.17-.3zm.24 1.42c.12 0 .15.11.09.22a.32.32 0 0 1 -.07-.24zm.29 1.23a.31.31 0 0 1 .19-.26.2.2 0 0 1 -.1.27zm-.59-1.3c-.08-.17 0-.25.12-.22a1.72 1.72 0 0 1 -.11.2zm-.25 0a.49.49 0 0 1 .17-.11c.07.13 0 .23-.08.27s.05-.13-.08-.16zm0-.94h.06v.1zm.38-.19c-.14.3-.42 0-.55-.19l.06-.1.12.1v-.14c.08 0 .09 0 .13.11s.11.25.28.23zm-.33-1c.09 0 .12.24-.09.26l.07.09c-.14 0-.19.1-.31.21l-.05-.1h.09c-.28-.2.17-.33.32-.41zm-.36.67a.56.56 0 0 0 -.08.41c-.15-.12-.05-.29-.07-.36s-.07 0-.05-.08a.61.61 0 0 1 .23.08zm-1.62 4.06a.47.47 0 0 0 .32-.21c.08-.12.35-.11.48-.14a1.08 1.08 0 0 0 -.59.06 3.23 3.23 0 0 1 .46-.49 1.49 1.49 0 0 1 -.57-.17c.07-.07.24-.18.21-.29s-.12-.24.07-.35.26 0 .37.06.24-.07.38-.18l-.33-.12c.17-.28.51-.66.85-.46l-.07.13c.11 0 .38-.15.46-.06s.16.42.32.37c0 .39-.13.4-.43.61a.75.75 0 0 1 .19.64l-.15.49c-.06.18-.16 0-.31.09-.43.12-1 .82-1.49.44.06 0 .09-.11.15-.14l-.33-.08a2.17 2.17 0 0 0 .25-.13c-.05.04-.13-.01-.21-.02zm-32.86-17.56c-.19 0-.72.27-.89.17a1.25 1.25 0 0 1 -.34-.2c-.13-.18.06-.25-.17-.36a.33.33 0 0 1 .08-.62l.57.21c.16.06.37-.06.52 0a2.53 2.53 0 0 1 1 .81 3.25 3.25 0 0 0 -.77-.01zm1.48 4.76a.36.36 0 0 1 .64.21c-.06.02-.85.03-.64-.21zm-.2-.15c-.12.3 0 .45-.15.76s-.66 0-.83-.13c-.43-.36.6-1.14.97-.6zm-4.24 5.29c-.07 0-.1-.18-.12-.24s0-.16.13-.28a1.06 1.06 0 0 1 .62-.22h.31a.91.91 0 0 1 -.93.78zm1.3-1.12c-.28-.09-1.06-.18-1-.64-.29.11-.26.34-.54.45s-.33.34-.52.48-.18-.51-.25-.55a5.9 5.9 0 0 0 -.72.13c.09-.13.45-.4.49-.51s-.07-.26 0-.36 0-.29.09-.44c.09-.35.08-.62.39-.76s.42.36.06.42a.63.63 0 0 0 .1.21c.18-.25.24-.17.4 0s.32.08.45.17 1.07.57.73.91a.77.77 0 0 1 .78.21zm.6 1.6c-.14-.15-.23-.19-.21-.41s.19-.36.37-.31c.43.18-.01.62-.15.75zm8.17 11.46c-.3-.14-.71-.21-.47-.65l.13.31.92.07c-.19.26-.27.44-.57.3zm-.66-2.59a1.74 1.74 0 0 1 1.38.52c-.37.33-1.06-.25-1.36-.49zm-6.18 19.7a1.72 1.72 0 0 1 -.56-.29c.2-.3.64-.06.9 0a1.37 1.37 0 0 1 .12.18c-.22-.08-.36.15-.46.11zm.85-1.19c-.38 0-.76.06-1.13 0 0-.05.3-.24.3-.31s-.29-.13-.37-.17c-.3-.14-.31-.46-.58-.5s-.55-.24-.83-.25-.18-.13-.34-.08a.35.35 0 0 1 -.36-.13.33.33 0 0 0 .26-.05c-.5-.5-1.08.63-1.58.37.26-.16.34-.47.66-.54a3 3 0 0 1 1.1-.15 4.31 4.31 0 0 1 1.89.81v-.07a1 1 0 0 0 .8.39c.07 0 .14.21.28.23a1 1 0 0 1 .47.28zm3.1.82c-.3 0-.48.09-.74.1-.05 0-.09-.14-.24 0s-.08.38-.18.41-.17-.28-.25-.32-.28 0-.4 0c-.38-.06-.51.1-.82-.11-.11-.32.8 0 1-.12-.22-.33-.18-.45-.54-.62.34-.16.44 0 .8 0a1.16 1.16 0 0 0 .32-.09c.12-.06.31.06.43.1s.17-.07.26.11.14.24.38.29.33.16.27.26-.08-.01-.3-.01zm1 .19c-.16-.41.42-.22.64-.2l.08.08c-.17.17-.67.4-.77.11zm7-17.47c-.14.21-.17.2-.4.11s-.23-.11-.18-.43c-.43 0-.51.31-.92.39a.31.31 0 0 1 .24-.33 2.26 2.26 0 0 0 -1.37-.18c-.14 0-.49.06-.59-.1a1 1 0 0 1 .06-.62 3.66 3.66 0 0 0 .91-1.34c.15-.36.59-.91 1-.75l-.2.42c-.22.21-.32.23-.31.55 0 .1.17.13.25.16s.07.27.08.38c.17 0 .74-.26.88-.1s.21.21.18.49c0 .09.27.16.31.33s.11.78-.01 1.01zm11.24-16.72-1.18.32c-.26.07-.33.21-.51.44a4.63 4.63 0 0 1 -.71.88 3.78 3.78 0 0 1 -.88.29l-1.26.41c-.32.1-.3.11-.43.46-.23.64-.46 1.27-.67 1.92l-.78 2.43c0 .07-.6.06-.7 0l-1.25-.46c-.2-.07-.57-.11-.7-.32l-.85-1.19a10.57 10.57 0 0 1 -1.22-2.12l-.52-1.46a3.43 3.43 0 0 1 .12-1.27c0-.06 0-.4.07-.42l.71-.3c.07 0 .39-.11.4-.19l.1-.77-1 .3c-.47.14-.45.14-.8-.24s-.11-.53 0-.95-.24-.58-.52-.88-.06-.51.07-.88.08-.43-.09-.81a9.31 9.31 0 0 0 -1-2c-.11-.14-.46-.78-.63-.8l-1-.17a6.38 6.38 0 0 0 -1.94-.16l-1.13.14c-.19 0-.66-.38-.83-.48l-1-.59c-.24-.14-.46-.6-.63-.84-.06-.08-.32-.34-.3-.44s0-.48.16-.52l1.71-.49a5.55 5.55 0 0 1 1.26-.24c.31 0 .36 0 .47-.26l.32-.82c-.5-.06-.93 0-1.29-.39l2.92-1.51 1.19-.61a3.64 3.64 0 0 1 1.07-.15l2.09-.28a3.84 3.84 0 0 1 1.06-.14 19 19 0 0 1 2.88.84 4.06 4.06 0 0 0 -1.49-1.18l1.73-.79c.39-.18.89 0 1.3.11l1 .18c.27 0 .29-.42.5-.54a1.69 1.69 0 0 1 .57-.05l1.28-.11a15.32 15.32 0 0 1 3.5.28 11.09 11.09 0 0 1 2.95 1l-1.54.56c.32.26.68.18 1.06.19s-.17 1-.22 1.07c.31-.13 1-.58 1.29-.53l.86.14c.24 0 .34-.23.49-.42s.95-.22 1.29-.16a8.3 8.3 0 0 1 1.43.56l-1.24.72a3.61 3.61 0 0 1 -1.11.28l.31.26a4.5 4.5 0 0 1 -.92.82 2.78 2.78 0 0 0 -.92.71c-.19.31-.67.8-.52 1.17s.47.6.89.88l-1.18 1.16.81.55c.22.15.19.56.23.82s.21.8.13.88l-.81.9a5.08 5.08 0 0 0 -.73 1.76c-.08.23.16.76.21 1 .11.47.09.45-.22.82l-1.92 1.17a6.56 6.56 0 0 1 -1.86.5zm5.66 4.18a1 1 0 0 1 -.7 0 1.45 1.45 0 0 1 -.41-.09c-.07 0-.14-.26-.22-.25l-.91.12c-.12-.32.35-.23.44-.51h-.12v-.12c-.16 0-.22-.08-.11-.2-.21 0-.84.14-.89-.14.34 0 .73-.15 1.11-.14v-.11a.39.39 0 0 1 -.38 0l.39-.19c-.16 0-.48-.19-.63-.13-.32.13-.41.19-.73.06.11-.06.08-.1.22-.08s0-.11 0-.16.25.14.31 0-.28-.1-.09-.33.64.35.59-.13c-.16 0-.29 0-.34-.17.37 0 .35.05.63.3.05 0 .27.09.28.19a.17.17 0 0 1 -.21.18 5.15 5.15 0 0 0 .29.47 4 4 0 0 1 .19-.45c.11-.17.32 0 .15-.37.21 0 .33.2.47.34-.06-.18 0-.4.21-.4s.29.18.43.39c0-.14 0-.28-.06-.42.37.17.47 0 .86 0-.23-.58 1.06-.06.8.39.22-.08.36.06.55.16s0 .31.14.43c-.15.15-.27.37-.49.25 0 .3-.16.51-.43.44s-.54.3-.71.4l-.42.06c-.12.03-.06.13-.21.21zm33.35 48.5-.25-.25a3.7 3.7 0 0 1 -.19 1.67l-.88 2.93-.24.8s-.64.22-.72.26-.72-.16-.74-.3a8.35 8.35 0 0 0 -.19-1 1.59 1.59 0 0 1 -.06-1c.1-.32.48-.65.51-1a4.1 4.1 0 0 0 -.24-1.1c0-.17.12-.81.26-.83a3.3 3.3 0 0 0 1-.36c.31-.16.43-.42.67-.7s.43-.34.45-.83.44 0 .56.2a2.45 2.45 0 0 1 .06 1.49zm29.8-19.32c-.18 0-.21.23-.24.39s-.25.19-.37.24 0 .13-.09.12a.47.47 0 0 1 -.27-.08c-.25-.14-.2-.21-.2-.52.31-.2.53-.61 1-.36v-.12c.11.03.17.15.17.33z" fill="#6dc3da"/><path d="m219.16 83.12c-.09-.08-.09-.33-.18-.39-.4-.25-.47.39-.47.62a.84.84 0 0 1 -.09-1c-.17-.08-.54-.15-.66-.3a2.34 2.34 0 0 1 -.12-.7s-.56-.23-.31-.29.3.23.55 0c-.16-.15-.32-.18-.19-.39a.46.46 0 0 1 .39-.16 4.5 4.5 0 0 1 1 .15.56.56 0 0 0 -.34.52c.18-.25.25-.41.55-.45-.15-.48-.26-.16-.66-.29.06-.21.2-.45.09-.64s-.22-.51-.37-.34-.39 0-.59-.08-.4.19-.56.22c-.39.07-.37-.14-.48.35 0 .14-.48.24-.59.29-.27.11-.25.13-.32.45 0 .15-.26.31-.36.41a.53.53 0 0 1 .51.5 1.86 1.86 0 0 0 .22 1c.11.24.37.31.5.54a1.21 1.21 0 0 0 .63.65c-.29.09-.35.06-.42.38a4.24 4.24 0 0 1 -.2.57 1.22 1.22 0 0 0 0 .64c0 .28.1.22.35.29s.23.22.4.27l.64.2a3.05 3.05 0 0 0 1-.12 3.34 3.34 0 0 1 0-1c.1-.52-.13-.28-.34-.65a1.67 1.67 0 0 0 .2 0 1 1 0 0 0 -.1-.32c-.05-.06-.23 0-.29 0s-.05-.35 0-.51a2.66 2.66 0 0 0 .94.05c.01-.25-.19-.34-.33-.47z" fill="#6dc3da"/><g fill="#075b5d"><path d="m146.46 62.19.19-.32a.36.36 0 0 0 -.19.32z"/><path d="m149 58.35.47-.65a1.48 1.48 0 0 0 -.47.65z"/><path d="m199.91 63.18c.07.05 0 .08.13.11a.89.89 0 0 1 -.1.18c.2-.2.32-.28.27-.6.01.24-.12.29-.3.31z"/><path d="m189.78 73.18a1.72 1.72 0 0 0 .12-.22c-.1-.03-.2.04-.12.22z"/><path d="m190.56 74.22a.31.31 0 0 0 -.19.26h.09a.2.2 0 0 0 .1-.26z"/><path d="m187.94 76.13c-.05 0-.09.1-.15.14.45.38 1.06-.33 1.49-.44.15 0 .25.09.31-.09l.15-.49a.75.75 0 0 0 -.19-.64c.3-.21.4-.22.43-.61-.15.05-.2-.23-.32-.37s-.35 0-.46.06l.07-.13c-.34-.2-.68.18-.85.46l.33.12c-.14.11-.21.22-.38.18s-.27-.12-.37-.06-.13.13-.07.35-.14.22-.21.29a1.49 1.49 0 0 0 .57.17 3.23 3.23 0 0 0 -.46.49 1.08 1.08 0 0 1 .59-.06c-.13 0-.4 0-.48.14a.47.47 0 0 1 -.32.21c.08 0 .16.06.24.07a2.17 2.17 0 0 1 -.25.13z"/><path d="m190 72h-.08.11a.64.64 0 0 0 -.17.34c0 .06-.17.12-.24.21.21 0 .21.13 0 .17.13.12.46 0 .18-.18.18.11.26-.06.39-.18v.07c-.2.11-.23.33-.28.55s.05.15 0 .33-.11.14 0 .21.13-.19.14-.3 0-.35.22-.43c-.23.19 0 .39.12 0a.79.79 0 0 1 .06.18c-.14 0-.11.06-.08.2s.08.12 0 .34-.29.25 0 .45v-.16c.12 0 .31.2.24 0 .19.13.42-.12.68-.08-.45.11-.21.81.07.6a.54.54 0 0 0 0 .64h-.05c-.07-.11-.05 0-.14-.09v.12c-.17 0-.31-.1-.46 0a.19.19 0 0 0 -.27-.12c.19.16.1.3-.07.42l.33-.06c0 .22.1.28-.05.49s-.41.17-.53.23 0 .15 0 .12c.14.25.33-.08.55 0l-.08.06c.09 0 .32.14.35.13l.48-.17a.74.74 0 0 0 -.22.35c-.3 0-.63-.18-.73.22-.05.21-.4.38-.54.55.27.19.56-.37.94-.09.21-.53.3-.1.68-.29.11-.06.35-.24.48-.24s.2.19.39.15a5.09 5.09 0 0 0 .87-.21c.43-.18-.23-.31-.36-.33.32-.24.55-.37.59-.8s-.71-.15-.78-.23c.29-.21-.15-.59-.37-.59a.26.26 0 0 1 .34.11c-.09-.58-.57-.62-.72-1.09s-.44-.65-1-.73a.34.34 0 0 1 .35-.15c-.16-.35.61-.76.4-1.08s-1-.1-1.12.11c.07-.06.1-.16.18-.21a1.42 1.42 0 0 0 -.23-.07h.16c0-.22.45-.27.51-.59a1.09 1.09 0 0 0 -.7.13c-.1-.05 0-.07-.14 0 0-.22-.23 0-.15.14h-.15v.13c.06.06.11.14.18.2a.35.35 0 0 0 -.34 0c0 .08.05.19.1.27h-.14c-.08.25-.02.2.1.25z"/><path d="m156.88 50.91-.1-.33c.22.06.5.22.71.11a2 2 0 0 0 .67-.53h-.66l1.05-.22a3.87 3.87 0 0 0 .94-.58c.36-.23 1.55-.53 1.58-1l-2.7.54 1.65-.49-1-.16 2.11-.16a5.25 5.25 0 0 0 1.59-.81 11.2 11.2 0 0 0 -1.83-.49 2.24 2.24 0 0 0 -.81 0 54.62 54.62 0 0 0 -5 4.33c.64-.03 1.22-.12 1.8-.21z"/><path d="m189.62 72.22h-.06l.06.06s.03 0 0-.06z"/><path d="m189.22 71.59.05.1c.12-.11.17-.18.31-.21l-.07-.09c.21 0 .18-.31.09-.26s-.58.21-.29.43z"/><path d="m189.09 71.85c0 .07-.08.24.07.36a.56.56 0 0 1 .08-.41.61.61 0 0 0 -.2 0c-.04.03.02.02.05.05z"/><path d="m189.58 71.75v.14l-.12-.1-.06.1c.13.15.4.49.55.19-.17 0-.27-.05-.23-.22s-.07-.11-.14-.11z"/><path d="m189.62 73.35c.13 0 .14-.14.08-.27a.49.49 0 0 0 -.17.11c.13.04.05.1.09.16z"/><path d="m200.44 62.49.07-.36c-.16 0-.23.13-.18.3h-.13c0 .16 0 .11-.11.24.2 0 .27.1.4-.07a.26.26 0 0 1 .33-.13c0-.13 0-.4-.15-.29s-.06.22-.23.31z"/><path d="m201.57 61.65c-.1-.2-.21-.13-.36-.08s-.23 0-.24.31.49-.14.6-.23z"/><path d="m201.45 61.8-.39.33c-.17 0-.23.1-.17.27z"/><path d="m201.86 61.23a2.89 2.89 0 0 1 -.32.3h.34c.12-.14.22-.22-.02-.3z"/><path d="m200.57 61.95v-.12c-.17.07-.4.09-.33.34z"/><path d="m191.14 70.79h.24c-.08 0-.13 0-.22 0h.08c-.17-.13-.2 0-.21.11l.07.1s.02-.17.04-.21z"/><path d="m199.62 62.77c-.08-.09-.17-.07-.26 0s0 .09 0 .13a.23.23 0 0 0 .26-.13z"/><path d="m199.71 62.83.4-.26c-.21 0-.41-.06-.4.26z"/><path d="m200.05 62.06-.31.35.31.06c.21-.12.17-.27 0-.41z"/><path d="m159.9 97c.11.29.61.06.72-.12l-.08-.08c-.22-.02-.81-.2-.64.2z"/><path d="m202.33 61.12c-.15-.09-.34-.11-.41.09a1.16 1.16 0 0 0 .17.07.25.25 0 0 0 .24-.16z"/><path d="m182 60.28c-.06-.23-.29-.76-.21-1a5.08 5.08 0 0 1 .73-1.76l.81-.9c.07-.08-.11-.77-.13-.88s0-.67-.23-.82l-.81-.55 1.18-1.16c-.42-.28-.69-.39-.89-.88s.33-.85.52-1.17a2.78 2.78 0 0 1 .92-.71 4.5 4.5 0 0 0 .92-.82l-.31-.26a3.61 3.61 0 0 0 1.11-.28l1.24-.72a8.3 8.3 0 0 0 -1.43-.56c-.34-.06-1.05-.14-1.29.16s-.26.47-.49.42l-.86-.14c-.33-.05-1 .39-1.29.53 0-.09.66-1.05.22-1.07s-.74.06-1.06-.19l1.54-.56a11.09 11.09 0 0 0 -2.95-1 15.32 15.32 0 0 0 -3.5-.28l-1.28.11a1.69 1.69 0 0 0 -.57.05c-.2.12-.23.59-.5.54l-1-.18c-.41-.07-.91-.28-1.3-.11l-1.73.79a4.06 4.06 0 0 1 1.51 1.12 19 19 0 0 0 -2.88-.84 3.84 3.84 0 0 0 -1.06.14l-2.09.28a3.64 3.64 0 0 0 -1.07.15l-1.19.61-2.92 1.51c.36.39.79.33 1.29.39l-.32.82c-.12.31-.16.25-.47.26a5.55 5.55 0 0 0 -1.26.24l-1.71.49c-.14 0-.13.38-.16.52s.24.36.3.44c.17.23.39.69.63.84l1 .59c.17.1.63.51.83.48l1.13-.14a6.38 6.38 0 0 1 1.94.16l1 .17c.17 0 .52.66.63.8a9.31 9.31 0 0 1 1 2c.17.38.22.42.09.81s-.33.59-.07.88.62.45.52.88-.27.64 0 .95.33.38.8.24l1-.3-.1.77c0 .09-.33.17-.4.19l-.71.3c-.05 0-.06.36-.07.42a3.43 3.43 0 0 0 -.12 1.27l.52 1.46a10.57 10.57 0 0 0 1.32 2.22l.78 1.23c.13.2.5.24.7.32l1.25.45c.1 0 .68.05.7 0l.78-2.43c.21-.65.43-1.28.67-1.92.13-.35.11-.35.43-.46l1.26-.41a3.78 3.78 0 0 0 .88-.29 4.63 4.63 0 0 0 .71-.88c.18-.23.25-.37.51-.44l1.18-.32a6.56 6.56 0 0 0 1.77-.53l1.92-1.17c.3-.41.33-.4.19-.87z"/><path d="m166.49 78.19c0-.27 0-.28-.18-.49s-.71.05-.88.1c0-.11 0-.33-.08-.38s-.25-.07-.25-.16c0-.32.09-.35.31-.55l.2-.42c-.4-.17-.84.39-1 .75a3.66 3.66 0 0 1 -.91 1.34 1 1 0 0 0 -.06.62c.1.16.45.11.59.1a2.26 2.26 0 0 1 1.37.18.31.31 0 0 0 -.24.33c.41-.08.49-.37.92-.39-.06.31-.1.32.18.43s.27.09.4-.11 0-.77-.08-1-.3-.25-.29-.35z"/><path d="m159 96.49c-.24-.05-.26-.05-.38-.29s-.11-.06-.26-.11-.31-.17-.43-.1a1.16 1.16 0 0 1 -.32.09c-.36 0-.46-.12-.8 0 .36.17.32.29.54.62-.22.16-1.12-.21-1 .12.31.22.43.06.82.11h.4s0 .39.25.32.09-.35.18-.41.19 0 .24 0c.26 0 .44-.1.74-.1s.18.19.33-.06-.2-.17-.31-.19z"/><path d="m217.11 113.92c-.13-.18-.54-.81-.56-.2s-.15.49-.45.83-.35.54-.67.7a3.3 3.3 0 0 1 -1 .36c-.14 0-.3.66-.26.83a4.1 4.1 0 0 1 .24 1.1c0 .33-.41.66-.51 1a1.59 1.59 0 0 0 .06 1 8.35 8.35 0 0 1 .19 1c0 .13.62.35.74.3s.71-.23.72-.26l.24-.8.88-2.93a3.7 3.7 0 0 0 .19-1.67l.25.25a2.45 2.45 0 0 0 -.08-1.53z"/><path d="m246.76 96c-.45-.25-.66.16-1 .36 0 .31-.05.38.2.52a.47.47 0 0 0 .27.08c.14 0 0-.09.09-.12s.35-.06.37-.24.07-.41.24-.39c0-.17 0-.3-.17-.32z"/><path d="m235.53 56c-.37.22-.34.23-.35.71 0 .25.09.51-.15.53l-1.11.11-2 .2c0 .22.08 1.09.27 1.12s.57 0 .68.11a2.26 2.26 0 0 1 .23.63c-.18 0-.4.12-.56 0a3.14 3.14 0 0 0 -.51-.31 1.75 1.75 0 0 0 -1.41-.18c-.19.06-1 .42-.55.65a13.37 13.37 0 0 0 1.28.53c-.3 0-1.5 0-1.66-.32s-.26-.42 0-.85c.1-.18-.23-.63-.39-.59.06.13.25.66 0 .75s-.58.17-.76.46.27.62.4.81-.12.58-.24.83.1.57.15.78.78-.1.87-.11a.7.7 0 0 1 .73.17c.24.17.2.46.25.76l-.59-.69c-.12-.14-.54.09-.69.14-.78.24.17.8-.2 1.17a4.38 4.38 0 0 1 -1.27 1.1 1.51 1.51 0 0 1 -1.45-.45c.17 0 .61.17.75.08l1-.6c.19-.12.29-.61.38-.82.16-.38-.18-.41-.48-.61s.25-1.56.1-1.87-.4-.6-.33-.79l.39-1.06c-.34 0-1.77-.38-1.89 0s-.17.85-.38 1l-.91.72c.14.09.62.27.54.45s-.41.64-.21.79l.92.69c.13.09 0 .62-.05.78a4.74 4.74 0 0 0 -.87-.66l-1.25-.5a3 3 0 0 0 -2.09-.08c.26.34.44.37.17.73s-.27.36-.7.23l.18-.31a1 1 0 0 0 -.85.07 1.32 1.32 0 0 1 -.87.06c-.23 0-.37.47-.64.41s-.41-.1-.54-.54l-1.4.63-.92.42c-.11.05-.4.12-.48.22s.06.47-.26.51-.52.18-.7 0-.43-.38-.29-.63.59-.11.75-.13c-.16-.21-.33-.6-.58-.63l-1-.13c.06.08.36.35.34.44-.06.26-.12.51-.19.77 0-.06.29.38.31.43s-.08.45-.11.61l-.84-.25c-.17-.05-.43.22-.56.31l-.79.53a5.5 5.5 0 0 0 .27.8l-1.05-.37c-.43-.15-.45-.22-.81.1.15.19.23.4.47.4s.34.36.11.45c-.38.16-.88-.29-1.26-.45s-.28-.9-.28-1.28-.71-.84-1-1.09a10.61 10.61 0 0 0 2.51.85 1.63 1.63 0 0 0 1.14-.07c.22-.07.26-.2.4-.41s.24-.33.11-.72a1.35 1.35 0 0 0 -.92-.72 6.46 6.46 0 0 1 -1.24-.59 2.22 2.22 0 0 0 -1.19-.4c-.24 0-1.13.19-1.06-.32.18 0 .41.2.48 0-.12-.06-.45-.31-.53-.19s-.43.12-.7.1c-.11 0-.43.09-.45 0-.1-.25-.35-.17-.46-.39a2.88 2.88 0 0 0 .77.07c.1 0 .59-.27.33-.38l-.94-.37c-.3-.12-.09.56-.45.28l.25-.43c-.1 0-.45-.09-.51 0l-.41.55q0-.23-.09-.46c-.19.25-.46.76-.76.82a2 2 0 0 1 .6-1 1.47 1.47 0 0 0 -.85.15c-.24.14-.38.58-.65.66a16.27 16.27 0 0 0 -2 .75 4.81 4.81 0 0 0 -1.47 1.34 11.66 11.66 0 0 0 -1.33 1.57 7.84 7.84 0 0 1 -1.18 1.66c-.25.23-.47.47-.7.72a2.44 2.44 0 0 1 -.85.54 3.65 3.65 0 0 0 -.75.44c-.42.35-.46.36-.49.93s.23 1.32.25 2 .92.66 1.27.44.41-.38.63-.54.39-.27.5-.67c0 .15.07.4.22.44s0 .3.07.45a2.5 2.5 0 0 0 .23.47c.05.12 0 .3.08.4s.6.59.49.88a1.27 1.27 0 0 0 0 .53c0 .28.07.22.33.2s.27 0 .32-.14 0-.32.18-.35c.37-.08.68-.08.86-.5a5.16 5.16 0 0 0 .17-1.14c.06-.42.3-.52.6-.79s.59-.36.48-.6-.65-.33-.82-.63c-.4-.69.22-1.43.59-1.9.12-.16 1.6-.92 1.42-1.23s-.07-.56.17-.83c.38-.42.43-.4 1-.38a.78.78 0 0 1 .8.59c.09.32-.15.16-.31.24s-.36.45-.48.6c-.24.3-.59.49-.84.78-.1.12-.42.36-.45.52a2.41 2.41 0 0 0 .18.72 1.2 1.2 0 0 1 0 .6c-.05.36-.08.34.23.46a.73.73 0 0 1 .46.4c.05.08.38 0 .46-.05.8-.15 1.6-.34 2.38-.5 0 .05 0 .15-.08.21.22.09.74.19.82.45-.14 0-.41-.13-.53-.05s-.39.05-.54.14.1.29-.29.24l-.84-.1a2.37 2.37 0 0 0 -1.14.32c-.05 0 0 .43.1.49a2.47 2.47 0 0 0 .22.23s.14-.1.2-.06-.07.48 0 .6-.11.47-.31.45c-.36 0-.48-.83-1-.47-.19.14-.1.37-.21.5a.69.69 0 0 0 -.17.51c0 .25.34 1.26-.21 1a.86.86 0 0 0 .21-.31c-.08.13-.23.18-.34.28s-.13 0-.17 0-.07.23-.13.31-.61.15-.62-.17l.21.09a1 1 0 0 0 -1.25.24c-.15.19-.9.21-1.11.34h.29a.57.57 0 0 1 0 .19c-.17-.1-.35-.14-.41-.34a.63.63 0 0 0 -.43-.28c-.3 0-.59.53-.94.33l.14-.31c-.35.17-.71-.16-.77-.54s.38-.65.62-1c-.42-.1-.32-.7-.12-1-.27.14-.51.45-.8.46s-.45.42-.43.78 0 .3.13.43.06.28.13.52.26.21 0 .37.13.32.23.36c-.17 0-.38 0-.34.21a1.52 1.52 0 0 0 -.41 0h-.26c-.08 0 0 .16-.08.18-.31.1-.57-.09-.84.23-.08.09-.29.07-.31.19a1.26 1.26 0 0 1 -.25.59v.21s-.25 0-.25.07.25.13.34.16a1 1 0 0 0 -.62.08c-.13.06-.59.17-.65.27s.16.43-.13.57a1.42 1.42 0 0 0 -.61.36c.06 0 .12.06.19.06a1.07 1.07 0 0 1 -.67.09c-.14 0-.12 0-.17-.18s-.22-.08-.33-.09a2.19 2.19 0 0 1 .19.59c0 .13-.45.21-.54.23-.25.06 0-.42-.41-.15a1.17 1.17 0 0 1 -.63.11.32.32 0 0 0 .21.3c-.05 0-.11 0-.16 0a.27.27 0 0 0 .31.15c.19 0 .25.07.4.19s.25 0 .34.08 0 .15.2.11c0 .11 0 .49.19.55s.29.23.29.61.07 1.38-.43 1.49a1.62 1.62 0 0 1 -.7-.08c-.26-.09-.5.05-.78 0a1.25 1.25 0 0 0 -.88 0c-.26.07-.41-.3-.71 0l.05.1c-.11 0-.44 0-.51.17s0 .44.22.3a1.55 1.55 0 0 0 0 .9c.13.3-.1.8-.18 1.11s-.22.4 0 .69c0 .06.15-.08.16 0v.31a2.06 2.06 0 0 1 -.07.56c.23-.17.41 0 .66-.1s.43.24.68.12c-.25.18.11.63.32.57s.39-.42.68-.41a7 7 0 0 0 1 0c.1 0 .22-.3.28-.39s.32-.11.43-.14c-.09-.19.21-.44.33-.6s-.2-.39-.11-.55c.3-.52.46-.93 1-1.19.17-.09.59-.2.71-.36s-.07-.64 0-.7.37-.45.52-.4l.93.31a4.49 4.49 0 0 0 1.15-.76c.13-.16.35-.09.53 0 .35.18.35.21.44.62s.55.6.87.92.33.44.58.4.5.25.47.41a.19.19 0 0 1 .29.19c0 .15.21.16.31.17s.36.75.25.81 0 .2-.18.3a2.19 2.19 0 0 1 -1.47 0c-.47.52.72.47.83.83.06.19.55.11.43-.13a.51.51 0 0 1 .17-.68c0 .39.48 0 .44-.27s.59-.25.22-.53c-.13-.1-.24-.09-.2-.27a.56.56 0 0 1 .22-.38c.15-.14.51.35.63.42.32-.42-.93-.94-1.18-1.14.27-.22 0-.21-.21-.22s-.38-.16-.59-.35-.15-.45-.29-.64a2.85 2.85 0 0 0 -.59-.45c-.21-.16 0-.44 0-.56-.19-.34 0-.37.29-.45s.25-.15.3.13.21.48.34.09a1 1 0 0 1 .43.7c0 .13.32.49.44.51a3.06 3.06 0 0 1 1.29.78c.29.23.41.23.38.61s-.15.6.16.86.27.47.4.67c.23.35.23.4.62.4-.42.34-.31.39-.15.93.15-.12.24-.18.32 0s.25.17.45.21c-.07-.22-.16-.3 0-.44s.15-.28-.09-.33c.19-.24.32-.07.5.07.07-.44-.27-.52-.57-.73.23-.24.22-.21.06-.5s-.31-.39-.13-.6c.17.12.31.27.51.1s-.08-.23 0-.27.25-.13.36-.1a4.47 4.47 0 0 1 .62.1c.16.06.33.07.47.12-.18.11-.33.16-.3.42l.73-.68c.16-.16.61.16.7-.09 0-.09-.47-.31-.56-.5s-.22-.64.09-.85.29-.49.37-.88c0-.12.3-.11.37-.21a1.88 1.88 0 0 0 .08-.52c0-.22.44-.53.58-.69s.67.1.88 0c-.1.22-.35.12-.55.1.09.07.25.24.36.23a1.35 1.35 0 0 1 .48 0c.48.16-.23.42-.41.52.37.18.58.12.42.57.27.21.74-.21 1-.34s.48.16.69-.22c-.3 0-.59.11-.77-.11s-.31-.63.05-.58l-.06.14a1.34 1.34 0 0 1 .77-.4v.11a1.22 1.22 0 0 1 .89-.36c.09 0 .4-.11.33.1s-.44 0-.34.26h-.38c.08.17.27.28.41.39-.3 0-.56.12-.45.53l-.38-.08-.11.16c.13.1.26.21.4.3a3.36 3.36 0 0 0 .35.21c.34 0 .55.35.81.59s.51.28.74.53.3.62 0 .77a1.29 1.29 0 0 1 -.9.28c-.31 0-.51.15-.82 0s-.75-.16-.83-.27c-.21-.29-.13 0-.34-.12s-.25-.17-.18-.3a2 2 0 0 1 -.87 0 1.36 1.36 0 0 0 -.7.31c-.3.2-.32.31-.7.25-.2 0-.65-.12-.73.09l.37.19a1.93 1.93 0 0 1 -1.07.24c-.23 0-.79.12-.74.56h.39c-.39.44.23 1.48.6 1.69.19.11.59.45.83.4s.25 0 .33-.29.24-.1.43-.07.42.39.74.38a1.67 1.67 0 0 0 .51 0c.13-.06.25-.36.39-.39s.25.19.35.11.22-.24.32-.13-.29.64-.12.89-.42 1.61-.56 2a1.07 1.07 0 0 1 -1.49.47c-.41-.2-.46-.14-.88.07a.83.83 0 0 1 -.84.07l-1.1-.32c-.08 0-.26.19-.31.09s-.1-.27-.29-.31l-.69-.14c-.14 0 0-.25-.15-.28a1.91 1.91 0 0 0 -1.22.08c-.1 0-.22.34-.27.44s.15.32.08.45c-.29.56-.52.48-1 .17s-.63-.17-1-.31-.28-.6-.67-.7l-1.51-.4c-.3-.08-.58-.46-.82-.67.15-.16.59-.48.47-.68-.24-.46-.2-.47 0-.95-.29-.12-.56-.35-.84-.18a1.55 1.55 0 0 1 -1 .12 2.1 2.1 0 0 0 -.41 0c-.15 0-.29.2-.44.21a1.45 1.45 0 0 1 -.45-.15 1.76 1.76 0 0 0 -.57.06 6.78 6.78 0 0 0 -1.83.57 10 10 0 0 0 -.88.52c-.06 0-.33-.16-.4-.2s-.43.07-.56.1c-.3.06-.56-.43-.66-.4-.37.1-.43.61-.58 1-.21.52-1.27.62-1.36 1.16l-.21 1.36c-.06.37-.19.37-.48.56a3 3 0 0 0 -1.31 1.14l-1.42 2.58a2.24 2.24 0 0 0 -.32.57 4.05 4.05 0 0 0 .23 1.05l.28 1.23c.05.25-.2.67-.29.9s-.31.61-.24.74l.47.83 1.48 2.57a2.88 2.88 0 0 0 1 1l1.16.84c.15.11.37.37.56.31l1.21-.43a1.29 1.29 0 0 1 .86.08c.32.08.45.16.73 0l1.11-.56a5.28 5.28 0 0 1 1.86-.21l.77.94c.18.22.68.06.93 0 .43 0 .42 0 .7.39s.22.36.17.78-.12 1-.17 1.46c0 .24-.13.49 0 .68l.8 1.07c.14.19.45.47.51.7l.55 2.35c.17.72.41 1.28 0 2a6.58 6.58 0 0 0 -.55 2.36c0 .18-.14.49-.06.66l.57 1.15a6 6 0 0 1 .72 1.77l.23 1.47c0 .18 0 .77.15.9s.5.38.61.64l.52 1.29c.08.2.33.59.3.81-.06.58-.07.57.33.93.12.11.45.54.61.51l1-.21 2.22-.47c.2 0 .51-.43.67-.57a10.51 10.51 0 0 0 .85-.73 17.75 17.75 0 0 0 1.28-1.81 3.26 3.26 0 0 0 .11-1c0-.43 0-.59.32-.76s.84-.26 1-.46a3.83 3.83 0 0 0 .13-1.18c0-.24-.31-.75-.41-1s.13-.45.35-.71l.74-.87c.19-.22.7-.34 1-.46a1.72 1.72 0 0 0 .88-1.44c0-.76.12-1.71-.33-2.31a1 1 0 0 1 -.29-.93 1.26 1.26 0 0 0 -.27-1.09c-.17-.26.89-1.72 1.06-2a18.91 18.91 0 0 1 2.91-3.3 6.41 6.41 0 0 0 .87-1.43 8.08 8.08 0 0 0 .94-1.86c0-.17.33-1 .25-1.1s-.57 0-.72 0l-2.48.66c-.24.06-.57-.56-.87-.65.45-.43-.13-.8-.42-1.13l-.52-.6c-.11-.13-.56-.1-.62-.26a8.21 8.21 0 0 0 -.55-1.49 3.55 3.55 0 0 0 -.57-.55c-.14-.13-.12-.49-.15-.68s-.1-.64-.15-1-.32-.39-.44-.52c-.27-.3-.21-.72-.39-1.1l-.85-1.71c-.15-.31-.63-.87-.36-1.21a4.59 4.59 0 0 0 .82 1.25l.33-1c0 .28-.08.56-.11.84.3-.08.39.31.52.53l.75 1.36c.12.21.34.31.44.5a3.9 3.9 0 0 1 .45 1c0 .24 0 .92.27 1 .39.15.43.22.65.59a5.45 5.45 0 0 1 .88 1.87l.27 1.43c.09.47.13.37.58.37.29 0 .35-.31.61-.37s.72-.22 1.09-.29c.18 0 .3 0 .41-.17s.1-.19.23-.23l1.27-.46c.24-.09.2-.43.46-.54l.56-.24c.13-.05.32.1.43 0s.14-.5.29-.57l.76-.37c.25-.12.36-.09.36-.39a1.66 1.66 0 0 1 .21-.8c0 .08.07.15.08.23.16-.19.68-.62.69-.87s.12-.42-.13-.46-.25-.37-.32-.5-.28-.11-.44-.18a3.58 3.58 0 0 1 -.52-.36c-.28-.19-.2-.75-.22-1.09a6 6 0 0 1 -1 1.13 3.47 3.47 0 0 1 -1.43.18 2.59 2.59 0 0 0 -.2-1.29c0 .27-.09.54-.13.82-.31-.6-.61-1.22-1-1.8-.1-.16-.56-.72-.43-.88.39-.45.38-.47.94-.39.32 0 .38.45.52.75a1 1 0 0 0 .69.72c.24.11.41.44.67.48a1.81 1.81 0 0 0 1.06 0c.48-.18.42 0 .67.45.14.27.44.24.71.3a5.67 5.67 0 0 0 1.85.31c.28 0 2-.4 2.06-.17s.23.73.43.85a4.56 4.56 0 0 0 1 .55 1.49 1.49 0 0 0 .4 0c0 .31-.5.28-.72.33.22.23.57.83.88.84s.3 0 .46-.19l.5-.68q0 1.18.07 2.36a4.77 4.77 0 0 0 0 .83 6 6 0 0 0 .46 1c.54 1.23 1.07 2.45 1.7 3.64l.68-.44c.21-.14.16-.41.19-.67.25.26.38.32.37.69a7.58 7.58 0 0 0 0 1.1c.08.85 1.15.3.88-.33a3.36 3.36 0 0 0 -.5-.94 1.89 1.89 0 0 1 -.44-1c-.07-.28.14-.7.22-1a4.15 4.15 0 0 0 0-1c0-.35-.11-.57.18-.72a3 3 0 0 0 .8-.4l1.66-1.71.59-.6c.07-.08 0-.35 0-.42s.29 0 .34 0l1.19-.17c.23 0 .5-.32.69-.46a3.13 3.13 0 0 0 .7 1.29 3 3 0 0 1 .79 1.34c.06.15-.07.57-.09.73-.05.38-.08.34.26.42s.31.08.52-.19l.51-.63a10 10 0 0 1 .59 2.41 8.93 8.93 0 0 1 .09 1.36c0 .24-.23 1.08-.08 1.23l1 1a4.27 4.27 0 0 1 .41 1.24c.15.45.17.6.51.87a2.47 2.47 0 0 0 1.09.65 7.41 7.41 0 0 1 -.36-.91c-.07-.32.05-.75-.07-1.05a2.17 2.17 0 0 0 -.58-.66c-.2-.15-.7-.39-.78-.65s-.21-1-.34-1-.26.06-.28-.22a1 1 0 0 1 0-.44 3.77 3.77 0 0 0 .32-1c0-.58-.05-.65.48-.67l-.05.4a1.7 1.7 0 0 1 1.26.7l.67.73c.17.18-.15.53.08.77a24.81 24.81 0 0 0 2-1.69c.23-.21.06-.95 0-1.25 0-.51-.19-.64-.5-1s-.51-.62-.72-1l-.45-.72c-.05-.09.15-.52.18-.62.1-.33.7-.63 1-.83a.9.9 0 0 1 1 .12c-.09 0-.16.09-.25.11s.11.44.18.47c.26.14.26-.17.23-.32s-.09-.23.1-.3l.46-.17c.15-1.65.23-3.32.23-5a54.09 54.09 0 0 0 -11.9-33.87zm-17 27.55c-.08.17-.16.34 0 .51s.23 0 .29 0a1 1 0 0 1 .1.32 1.67 1.67 0 0 1 -.2 0c.21.37.44.13.34.65a3.34 3.34 0 0 0 0 1 3.05 3.05 0 0 1 -1 .12l-.64-.2c-.17-.05-.18-.22-.4-.27s-.33 0-.35-.29a1.22 1.22 0 0 1 0-.64 4.24 4.24 0 0 0 .2-.57c.08-.32.14-.29.42-.38a1.21 1.21 0 0 1 -.63-.65c-.13-.22-.39-.3-.5-.54a1.86 1.86 0 0 1 -.22-1 .53.53 0 0 0 -.51-.5c.1-.11.33-.27.36-.41.07-.32 0-.34.32-.45.12-.05.56-.15.59-.29.11-.49.09-.28.48-.35.15 0 .41-.28.56-.22s.43.27.59.08.32.25.37.34 0 .43-.09.64c.4.13.51-.19.66.29-.3 0-.37.19-.55.45a.56.56 0 0 1 .34-.52 4.5 4.5 0 0 0 -1-.15.46.46 0 0 0 -.39.16c-.14.2 0 .23.19.39-.25.18-.31-.11-.55 0s.31.28.31.29a2.34 2.34 0 0 0 .12.7c.12.15.49.22.66.3a.84.84 0 0 0 .09 1c0-.23.07-.86.47-.62.09.06.09.3.18.39s.35.22.29.45a2.66 2.66 0 0 1 -.92-.06z"/><path d="m185.21 66.34c.27.08.44-.14.43-.44.22.12.33-.1.49-.25-.18-.12 0-.38-.14-.43s-.33-.24-.55-.16c.26-.45-1-1-.8-.39-.39 0-.49.15-.86 0 0 .14 0 .28.06.42-.15-.21-.19-.38-.43-.39s-.27.21-.21.4c-.14-.15-.26-.39-.47-.34.16.39 0 .19-.15.37a4 4 0 0 0 -.19.45 5.15 5.15 0 0 1 -.29-.47.17.17 0 0 0 .21-.18c0-.1-.23-.15-.28-.19-.28-.24-.26-.3-.63-.3 0 .18.18.15.34.17.05.48-.44-.05-.59.13s.15.22.09.33-.22 0-.31 0 0 .1 0 .16-.11 0-.22.08c.31.14.4.07.73-.06.15-.06.47.09.63.13l-.39.19a.39.39 0 0 0 .38 0v.11c-.38 0-.77.15-1.11.14.06.29.68.14.89.14-.11.13 0 .23.11.2v.12h.12c-.1.28-.56.19-.44.51l.91-.12c.08 0 .15.21.22.25a1.45 1.45 0 0 0 .41.09 1 1 0 0 0 .7 0c.12-.06.09-.16.23-.18l.42-.06c.14-.13.48-.48.69-.43z"/><path d="m156 95.54c-.14 0-.22-.24-.28-.23a1 1 0 0 1 -.8-.39v.07a4.31 4.31 0 0 0 -1.89-.81 3 3 0 0 0 -1.1.15c-.32.08-.4.38-.66.54.5.27 1.08-.87 1.58-.37a.33.33 0 0 1 -.26.05.35.35 0 0 0 .36.13c.16 0 .17.07.34.08s.53.21.83.25.28.36.58.5c.08 0 .38 0 .37.17s-.25.26-.3.31c.37.07.75 0 1.13 0l.6-.18a1 1 0 0 0 -.5-.27z"/><path d="m154.44 96.9a1.72 1.72 0 0 0 .56.29c.11 0 .25-.16.46-.09a1.37 1.37 0 0 0 -.12-.18c-.26-.08-.7-.33-.9-.02z"/><path d="m151.79 67.66c-.14.12-.19.1-.13.28s.05.25.12.24a.91.91 0 0 0 .93-.72h-.31a1.06 1.06 0 0 0 -.61.2z"/><path d="m154.5 57.47c-.15-.08-.36 0-.52 0l-.57-.21a.33.33 0 0 0 -.08.62c.23.11 0 .18.17.36a1.25 1.25 0 0 0 .34.2c.17.1.7-.13.89-.17a3.25 3.25 0 0 1 .78 0 2.53 2.53 0 0 0 -1.01-.8z"/><path d="m156.85 63.24a.36.36 0 0 0 -.64-.21c-.21.21.58.2.64.21z"/><path d="m152.72 66.57c.35-.35-.55-.79-.73-.91s-.34 0-.45-.17-.22-.26-.4 0a.63.63 0 0 1 -.1-.21c.36-.06.25-.56-.06-.42s-.3.41-.39.76c0 .14-.06.29-.09.44s.09.27 0 .36-.4.37-.49.51a5.9 5.9 0 0 1 .72-.13c.07 0 .11.64.25.55s.35-.41.52-.48.25-.34.54-.45c-.06.46.72.55 1 .64l.42-.28a.77.77 0 0 0 -.74-.21z"/><path d="m155.86 63.64c.19-.31 0-.45.15-.76-.39-.54-1.42.23-1 .63.19.15.67.43.85.13z"/><path d="m153.84 67.94c-.18-.06-.35.16-.37.31s.07.25.21.41c.14-.14.58-.58.16-.72z"/><path d="m162.58 78a1.74 1.74 0 0 0 -1.38-.52c.3.28.99.86 1.38.52z"/><path d="m161.38 79.46c-.24.44.17.51.47.65s.38 0 .58-.26l-.92-.07z"/><path d="m190.09 73.25a.32.32 0 0 0 .09.22c.06-.11.02-.19-.09-.22z"/><path d="m243.83 108.32c.23-.23 0-.22 0-.41s0-.45-.12-.48-.37-.08-.38-.21.15-.26.12-.41-.34-.2-.34-.34-.09-.14-.26-.27 0-.17-.26-.22-.29 0-.4-.16-.51-.37-.75-.6a6.26 6.26 0 0 1 -.71-.65c-.23-.32-.16-.49-.59-.54-.13 0-.77-.26-.84-.17s.41.79.5.87.62.26.64.62.49.33.59.7l.18.66c0 .15.19.1.28.2a4.69 4.69 0 0 1 .51 1.09 2.83 2.83 0 0 0 .55.7c.37.41.75.81 1.17 1.2.22-.57.44-1.14.64-1.72a.37.37 0 0 0 -.53.14z"/><path d="m205.55 87.17c0-.19-.36-.25-.52-.23a.85.85 0 0 1 -.71-.19.74.74 0 0 0 -.11.25 3.75 3.75 0 0 0 1.34.17z"/><path d="m209.36 87.24c-.13-.24.1-.34.25-.47-.16.07-.4.25-.56.23s-.48-.09-.55.06c-.26.5.76.21.86.18z"/><path d="m244.39 107.8c-.14-.22-.2 0-.31.13a.25.25 0 0 0 .23.06s0 0 .07.06l.12-.34a.16.16 0 0 0 -.14 0s.02.05.03.09z"/><path d="m197.18 83.12a1.92 1.92 0 0 0 .11-1c-.14 0 0 .15-.1.25a1.79 1.79 0 0 1 -.32.27c-.17.18.13.49.31.48z"/><path d="m203.46 71.58c.14-.25.45-.32.68-.47a1.08 1.08 0 0 0 -.8 0 .38.38 0 0 1 .12.47z"/><path d="m197.83 73.46c0-.18-.19-.13-.34 0 0 .12.22.41.35.37a.17.17 0 0 0 -.01-.37z"/><path d="m202 61.49.3-.1.42-.2c-.25-.13-.61.11-.72.3z"/><path d="m194.45 84.32c-.18-.34-.3-.17-.56 0l.3.24z"/><path d="m152.59 54.31c.21.22.32-.06.45.05s.12.25.05.5l.87-.27c.09 0 .13-.19.21-.22s.12.13.22.09.31-.06.3-.15 0-.34-.09-.4-.2-.16-.35-.07-.19.17-.31 0 .42-.55.52-.63c.29-.25-.17-.39 0-.51s.5.17.68.11a1 1 0 0 0 .66-.49l-.5-.27.87-.11c0-.36-.73-.39-1-.45h1c.07-.37-.73-.3-1.06-.31q-1.58 1.55-3 3.22c.16.15.46.23.48-.09z"/><path d="m150.48 56.42c.16.22.57.3.66 0 .08.33.54.12.77.08 0-.12 0-.25-.07-.37.31 0 .14.34.37.42a1 1 0 0 0 .55.11c.12 0 .69 0 .72-.16.08-.28.18-.26.44-.34a.75.75 0 0 0 -.43-.17l.36-.27a1.76 1.76 0 0 0 -1.66-.51c-.26.09-.47 0-.75.05h-.07q-.56.68-1.1 1.37h.22c-.01-.07.01-.15-.01-.21z"/><path d="m160.69 132.58.46-1c.08-.17-.22-.47-.26-.65a3.93 3.93 0 0 1 0-.83c.51.25.79.4 1.27.06.1-.07 0-.37.09-.55s0-.42-.06-.72a2.14 2.14 0 0 0 1.19 0c.49-.13.9-.12 1.21-.57.1-.16.38-.43.42-.62a3 3 0 0 0 -.17-.83c-.09-.43-.92-.49-.79-1 .22.07 1.68.7 1.79.56l1.39-1.79 1.52-2c.12-.15.09-.49.11-.68s0-1.07.14-1.16l1.83-1.26c.2-.14.75-.05 1-.07s.36-.37.5-.57c.32-.49 1-1.12 1-1.73.07-.92.13-1.85.2-2.77a1.84 1.84 0 0 1 .48-.9l1.3-1.88c.35-.51.34-.5.19-1.15-.07-.3-.14-.59-.21-.89 0-.07-.64-.08-.73-.09a8.42 8.42 0 0 0 -1.62-1.16l-2-.72-2-.72c-.12 0-.28-.37-.36-.47l-.94-1.22c-.31-.4-.69-1.21-1.18-1.33s-1.41-.14-1.82-.53l-1.94-1.87a2.41 2.41 0 0 0 -1.25-.44l-2.49-.58c-.32-.07-.9-.35-1.22-.24l-1.05.38c-.13 0-.61.13-.69.26-.25.42-.89 1.13-.87 1.65a1.83 1.83 0 0 0 -.89-.7c-.43-.13-.64 0-1.06.21-.67.27-1.56-.92-1.47-1.66 0-.15.15-.29.17-.44s.08-.54.13-.81a.75.75 0 0 0 -.53-.84 2.35 2.35 0 0 0 -.6-.09c-.16 0-.29.12-.45.1a6.56 6.56 0 0 1 -1.2-.1c.12-.11.42-.44.33-.62s.22-.72-.05-.74a1.25 1.25 0 0 1 .14-.24.41.41 0 0 0 .1.37 3.41 3.41 0 0 1 .17-.64l-.08.06c.06 0 .1-.1.15-.15-.15 0-.11-.06-.18-.1.13 0 .37-.53.44-.71.19-.44-.4-.32-.61-.35a2.75 2.75 0 0 0 -.8.16c-.36.14-.33.55-.44.89a.71.71 0 0 1 -.29.39c-.06.06 0 .16 0 .2a1 1 0 0 1 -.23.11c-.07 0-.17-.14-.29-.13a1.61 1.61 0 0 0 -.48.11l-.53.2c-.08 0-.22-.19-.31-.22-.43-.13-.53-.4-.8-.8a3.41 3.41 0 0 1 -.56-2.08 3.58 3.58 0 0 1 .22-.95 1.63 1.63 0 0 0 .12-.42c0-.17-.24-.35-.24-.52 0-.56.94-1.26 1.33-1.42.24-.1.63-.39.88-.29s.33.18.46.13.34.06.55.22.27-.14.4.11c0-.1.06-.14 0-.27.13.08.4.15.33.33a.15.15 0 0 0 .19-.18s-.28-.14-.34-.17c.51-.24-.17-.33-.35-.34.26-.21 1.14.08 1.19-.32.08.46.53.1.8.17a2.15 2.15 0 0 1 .47.31c.15.1.33 0 .49-.07s.45.26.71.43 0 .63.11.92l.1-.09c-.06.23 0 .34.13.54a3.15 3.15 0 0 1 .22.53s.3.29.35.36c.16.22.28 0 .41-.09s.12-.82 0-1.07a9 9 0 0 0 -.49-1.33 1.34 1.34 0 0 1 -.07-1 1.7 1.7 0 0 1 .85-1 1.45 1.45 0 0 0 .34-.39c.12-.15.34-.11.4-.2s.21-.42.34-.49.18.09.26.05l.31-.17c-.15-.09-.28.11-.37-.11.1 0 .15-.05.23-.08s-.1-.09-.16-.12c.1 0 .48 0 .5-.14 0-.27-.27-.21-.45-.21.21-.07.36 0 .41-.29s-.18-.21-.24-.39.1-.4 0-.5-.3-.18-.39-.31a1 1 0 0 1 .35.18c-.1-.45-.21-.63.16-.89.15-.11 0 .22 0 .24a2.15 2.15 0 0 0 -.11.5c.23-.06.17.17.28.24a1.31 1.31 0 0 0 -.15.48 5.12 5.12 0 0 1 .39-.76c.11-.23-.2-.57-.22-.83.07.21.38.33.28.51.16-.14.78-1 .35-1 .1-.19.41-.12.59-.14a1.24 1.24 0 0 0 .54-.21c-.08 0-.16 0-.23 0l.09-.07c-.28 0-.51.18-.8.22a1.8 1.8 0 0 1 1.07-.33c.15 0 .11-.3.21-.28s.42.16.61 0a.72.72 0 0 0 -.13-.15l.05.12c-.63.07-.17-.78-.07-1s.07-.29.23-.35.36-.12.48-.38l.1.1c.11-.22.92 0 .77-.52.1 0 .27.05.34 0s.14 0 .27-.07.48-.42.71-.37a.7.7 0 0 0 -.16.32c.17-.12.42 0 .62 0-.15.14-.26.34-.42.19s0-.23-.18-.1-1 .57-.69 1c.09 0 .23.23.38.09s.4-.52.6-.68.14.17.27.06a1.07 1.07 0 0 1 .51-.17l.89-.36c-.06 0-.08-.14-.14-.18a1.24 1.24 0 0 0 .71-.2c.18-.08-.12-.4-.32-.23.06-.22.23-.47-.06-.58-.15.23-.58.63-.37.91a.49.49 0 0 1 -.21.06v-.17c-.31.23-.67.08-1-.09l.08-.06c-.25-.06-.6-.32-.48-.65-.08 0-.17 0-.24 0a.74.74 0 0 0 .28-.44.71.71 0 0 0 -.43 0s-.24-.25-.33-.27c.23-.16.4.15.6 0s.59-.3.27-.51l.16.06c-.3-.77-1.47-.11-1.89.09-.62.3-1 1-1.58 1.27a6.81 6.81 0 0 0 .84-1 4 4 0 0 1 .55-.59c.12-.09.57-.14.61-.3.12-.62.6-.46 1.07-.49a9.13 9.13 0 0 1 1.54 0 1.16 1.16 0 0 0 1.17-.39 1.13 1.13 0 0 1 .5-.41c.23-.07.43 0 .64-.08a1.62 1.62 0 0 0 .58-.36c.18-.27-.09-.35 0-.58s.21-.52 0-.59-.47-.25-.63.06c-.14-.18.12-.16 0-.39s-.36-.19-.5-.19a.31.31 0 0 0 .22.12 1.44 1.44 0 0 0 -.6.17c-.07 0 0 .11-.15.15a.52.52 0 0 0 -.3.19c-.11.14-.17-.26 0-.32s.58-.08.69-.29c-.17.05-.37.17-.53.11a5.11 5.11 0 0 1 .77-.23c.47-.07 0-.27-.17-.42a1.33 1.33 0 0 0 -.85-.24c-.2 0-.05-.17-.14-.32a1.8 1.8 0 0 0 -.4-.32s-.29-.18-.3-.24.22-.33.21-.47-.41-.71-.54-.93c-.23-.4-.56-1.41-1-1.43l.08-.34c-.21 0-.52.37-.48.58s-.15.56-.28.83c-.05-.06-.15-.06-.2-.12-.23 1.27-1.36-.78-1.68.16-.18-.17.16-.41.27-.56-.06 0-.13 0-.2 0a1.18 1.18 0 0 0 0-.68c0-.25 0-.31.16-.53a1 1 0 0 0 -.63-.19c-.3 0-.45-.16-.52-.43s-.43-.35-.56-.44-.36-.36-.67-.22c-.48.23-.93-.2-1.43-.14-.27 0-.43.12-.35.39a1.12 1.12 0 0 1 0 .91c-.07.23.07.51.13.73.12.42.09.38-.22.67s-.21.24 0 .56a4.39 4.39 0 0 0 .56.6 1.53 1.53 0 0 1 0 1.49c-.25.36-1 .62-1.32.86.11.17.37.43.4.62l.18 1.11c.06.35-.64 1.1-1 .7s-.91-.86-.89-1.43c0-.41 0-.83.05-1.24 0-.12-.57-.11-.67-.13l-.89-.1c-.2 0-.52-.37-.69-.49a5.8 5.8 0 0 0 -1.56-.8c-.2-.07-.44-.22-.64-.17-.4.09-.49.24-.64-.18-.08-.23-.19-.83-.36-1s-.61-.15-.81-.19c.11-.51.22-1 .32-1.54a4.15 4.15 0 0 1 .71-1.23c.05-.08.2-.41.3-.41a1.15 1.15 0 0 0 .68-.11c.25-.12 0-.34-.13-.42a.66.66 0 0 0 -.65-.09s.07-.09.12-.13l-.59-.27.89.24c.47.15.5.13.92-.17.14-.1.29 0 .44 0s.28-.11.4-.17.4-.65.52-.85a3.61 3.61 0 0 1 -1-.13l-1.12-.57a3.13 3.13 0 0 1 1.46.26c.31.17.42.31.73.14a1.64 1.64 0 0 0 .46-.58l-.38-.22c.11-.24.39-.15.6-.16s0 .23.11.25l.41.1-.05-.16.4.21-.26-.59c.17.16.32.44.53.31a3 3 0 0 0 .77-.47c.25-.31.14-.48-.08-.69a2.06 2.06 0 0 1 -.42-.71c.14 0 .47 0 .57-.09s-.08-.35.07-.62a.94.94 0 0 1 -.66-.4c-.13-.15-.63-.13-.81-.16s-.45-.13-.52.19.09.44.26.71c-.42.19-.43.16-.43.66 0 .1-.21.23-.27.29s-.11.23-.13.42c-.06.67-1.45-.57-.82-.92v.18c.3-.1.15-.38.09-.63s-.44-.3-.56-.38-.27.31-.28.41a1.1 1.1 0 0 1 -.26.6c-.25-.16-.21-.23-.14-.51s0-.29-.26-.48l.32-.22c-.22-.11-.39-.29-.6-.14s-.38 0-.6-.09l.58-.36c-.11-.13-.31-.31-.47-.48l-.69 1.09c.12 0 .21 0 .22.19a1 1 0 0 0 -.39.1l-.19.32a.69.69 0 0 0 0 .12l.43-.21c0 .16.11.32 0 .44s-.3.37-.53.41c-.55.09-.39.48-.24.93a4.55 4.55 0 0 1 -.47-.28 54.07 54.07 0 0 0 -6.84 26.37v1.78l.2.26c.05.07.23.23.21.32s-.11.3 0 .37l1 .9a2.85 2.85 0 0 1 .48.57c.13.2.61.71.54 1s-.28.56 0 .84l.9.92a1.75 1.75 0 0 0 .53.22l1.38.56c.57.23 1.18.67 1.78.48.26-.08.58-.31.8-.09l1 1c.38.38 1.19.41 1.68.55s.9.64 1.35 1.16c.18.2.11.54.25.76s.63.48.87.66l.35.27c.07 0 .14-.08.25-.06s.59.42.67.2c.17.41.16.37.54.21 0-.08-.24-.3-.17-.37a2.06 2.06 0 0 1 .39-.32c.2-.11.2-.12.39 0s.28.11.2.44.54.51.47.78v.41s0 .26 0 .46c.13.89-.29 1.25-.79 1.88l-.66.85a3.09 3.09 0 0 0 -.23.92c-.11.46-.51 1.29-.27 1.73l1.16 2.17 1.41 2.63a2.27 2.27 0 0 0 .73 1l1.14.79c.19.14.63.32.77.53a3.45 3.45 0 0 1 .12 1 7.32 7.32 0 0 1 .14 1.13 10 10 0 0 1 -.25 1.32l-.56 3-.92 4.87c-.12.65-.2 1.32-.26 2q1.74 1.6 3.62 3a.43.43 0 0 1 .12-.06c.33-.17.38-.14.53-.46zm-6.55-50.29a3.52 3.52 0 0 1 -1 .56c-.38.14-.57.36-1 .32l.07-.1-.31-.07a3.8 3.8 0 0 1 .41-.63c0 .15.06.07.13.18a.37.37 0 0 0 -.29.28c.21.1.32 0 .47-.18a.57.57 0 0 1 .56-.21c.2 0 .88-.16.88-.37.1.05.08.11.08.22zm-.18-.64c.28-.06.62-.22.89-.1s.6-.27.81-.36l-.31.27c.37.15-.36.78-.7.46s-1.28.5-.65-.27zm-5.65-2.65.66-.29c.18-.08.07-.32.33-.37a1.42 1.42 0 0 1 -.07.17c.15-.06.13-.25.27-.33a.49.49 0 0 1 -.09.25c.16-.09.31-.2.13-.36a1.06 1.06 0 0 1 .5.16c.13.06.3-.17.43 0 .25.38.24.59.73.51-.12.34.08.21.15.45s-.1.14 0 .23.11.14.06.23.62.29.74.31c.33.07.72.08 1 .15s.36.59.6.8c-.21-.12-.14.1-.16.11s-.35-.13-.47 0c0-.06 0-.05-.08-.09s0-.08.07-.14c-.22 0-.1-.3-.36-.17.36.17.11.44 0 .68s0 .34 0 .42l-.34.38c0-.16 0-.68-.24-.69s-.46.34-.5.19.18-.3.22-.33.12-.37 0-.53h.11c-.06-.28-.28-.2-.44-.37s-.59-.19-.37.11c-.26 0-.21.28-.34.42 0-.09 0-.19 0-.28-.14.3-.49.38-.4.87a1.61 1.61 0 0 1 -.06 1.17c-.41.82-.61-.24-.64-.65a2.68 2.68 0 0 1 .18-.79c.05-.19.23-.47.21-.65-.16.11-.25.49-.45.44a2.37 2.37 0 0 1 .5-.86s0 .09 0 .13.13-.06.19-.11l-.08.12a.59.59 0 0 1 .9-.16c.07-.2.25-.1.42-.08-.09-.09-.14-.27-.24-.32s-.34 0-.27-.23a6.82 6.82 0 0 1 -.89.23c-.16-.09-.27 0-.39-.18s-.28-.15-.45-.06a.63.63 0 0 1 .37-.4c-.37-.29-1.06.7-1.55.44l.05-.13c-.2.07-.4.2-.61.09zm-3.54-3c-.1-.2-.59-.67-.19-.76-.34-.09-.42 0-.29-.47.07-.28.4-.11.57 0-.23-.16-.23-.25-.07-.53l.11.09a.3.3 0 0 0 -.2.23c.1 0 .12 0 .19-.09h.05c-.22.12.27 1.19.37 1.44a1.54 1.54 0 0 0 .27.55c.13.11 0 .32.06.51h-.13c0 .12-.12.36-.18.15a.52.52 0 0 1 .16-.59.8.8 0 0 0 -.18.09c0-.08.16-.29.08-.33s-.19 0-.23.14c0-.15.07-.36-.09-.42a.17.17 0 0 1 -.05.09c0-.05 0-.1 0-.16s-.1 0-.13.18z"/><path d="m148.68 59.14c0 .09.07.66.13.66.53.05.88 0 1.26.41l-1.15-.1a1.71 1.71 0 0 0 .72.68c.22.13.32 0 .5-.06.4 0 .11.07.33.27a1.28 1.28 0 0 0 .55.15 4.13 4.13 0 0 1 1.21.07l.36.14c.07 0 .12-.16.19-.15s.23.27.43.2l-.44-.42a2.68 2.68 0 0 0 1.55.16c-.11-.24-.14-.37-.4-.44.31-.29.28.17.51.27s.28-.09.3 0 .05.25.07.37c.27-.28.75.35 1 .53-.41.12-.49.05-.49.52l.56-.21c.25-.1.23-.12.37.13s.59.22.79.58l.38.71c.06.11-.07.17-.16.25l-.91.92c.09.07.48.26.41.45s-.58.17-.67.19a3 3 0 0 1 -1.14-.08c0 .25-.28.31-.4.52s.17.47.34.46.55 0 .74-.13.43 0 .65 0c0-.08 0-.16 0-.23.15 0 .25.06.25.23.39-.26.39 0 .64.37.14.21.4.19.63.32l-.4.2a1.07 1.07 0 0 0 .63.23l-.08.13.75.19c.11 0 .1.25.28.3l1.48.38c0-.24.1-.33-.08-.45l-.55-.39c-.11-.08-.39-.06-.46-.18l-.3-.52.53.24c0-.08 0-.18-.08-.26l.9.57c.16.1.44.47.55.43l-.12-.31c.05 0 .13 0 .18.05.11-.27-.26-.34-.12-.6l.25.33a2.33 2.33 0 0 0 -.08-.65c-.1-.17-.31-.09-.36-.33s0-.34-.26-.45-.34-.23-.4.09l-.19-.6c-.08-.24-.13-.14-.33-.06l-.13-.42.41.05c0-.27-.3-.25-.14-.5s.24-.14.42 0 .31.39.48.43.39-.14.51-.18c.09.3-.2.33-.39.42a2.35 2.35 0 0 0 1 .76 2.09 2.09 0 0 0 0-.85c.36.25.51.05.89-.14l-.38-.18c.11-.14.37 0 .53 0 0-.35.17-.56-.16-.71a2.43 2.43 0 0 0 -.81 0l.21-.33c-.33 0-.47 0-.7-.28a1.12 1.12 0 0 0 -.54-.4c-.54-.2-1.07-.41-1.59-.64l.44-.05-.07-.42.63.13c-.12-.34-.1-.33-.42-.27a1 1 0 0 1 -.5-.13.92.92 0 0 1 .72-.19c0-.27-.28-.39-.45-.51 0 .27-.31.32-.5.42.07-.28-.14-.23-.32-.26.23-.07.63-.08.71-.37-.21-.11-1.24-.78-1.37-.49s-.45.47-.56.17c0-.13.44-.34.55-.4-.14-.45-.7-.38-1-.27s-.64-.65-.83-.83a1.57 1.57 0 0 0 -1-.4c-.15 0-.48 0-.59.1s-.34.4-.43.35c-.32-.19-.29-.21-.56.06s-.36.15-.22-.1.2-.31.05-.62-.19-.19-.31-.36-.07-.43-.27-.44a1.53 1.53 0 0 0 -.55 0 5.71 5.71 0 0 1 -1.12.38l.11-.43a2.16 2.16 0 0 0 -1.39.17 1.6 1.6 0 0 0 -.33.2l-.47.65v.06c-.21.18-.44.6-.41.74z"/><path d="m202.56 69.91c0-.05 0-.11 0-.16h.08c-.07-.33-.5-.09-.08.16z"/><path d="m139.21 94c0-.15-.13-.32-.26-.43v.65c.15.01.24-.06.26-.22z"/><path d="m152.72 80.4-.07.07c.08-.1.12-.15.08-.26l-.06.08a.21.21 0 0 0 -.31-.12c-.17.07-.23-.09-.4 0h.14c.21.17.46.33.62.23z"/><path d="m148.33 79.53-.05.13c.48.26 1.18-.73 1.55-.44a.63.63 0 0 0 -.37.4c.17-.09.33-.1.45.06s.23.08.39.18a6.82 6.82 0 0 0 .89-.23c-.07.22.14.16.27.23s.15.23.24.32c-.17 0-.35-.13-.42.08a.59.59 0 0 0 -.9.16l.08-.12c-.07 0-.13 0-.19.11s0-.09 0-.13a2.37 2.37 0 0 0 -.5.86c.2 0 .29-.34.45-.44 0 .18-.15.46-.21.65a2.68 2.68 0 0 0 -.18.79c0 .41.23 1.47.64.65a1.61 1.61 0 0 0 .06-1.17c-.09-.49.27-.57.4-.87v.28c.14-.14.08-.4.34-.42-.23-.3.24-.24.37-.11s.37.09.44.37h-.08c.09.15.13.42 0 .53s-.24.24-.22.33.41-.19.5-.19.21.53.24.69l.34-.38c.07-.08 0-.3 0-.42s.33-.51 0-.68c.26-.13.14.2.36.17 0 .07 0 .08-.07.14s.06 0 .08.09c.12-.11.34 0 .47 0s-.05-.23.16-.11c-.24-.22-.22-.72-.6-.8s-.71-.08-1-.15c-.12 0-.79-.22-.74-.31s0-.15-.06-.23.06-.14 0-.23-.27-.1-.15-.45c-.49.08-.48-.13-.73-.51-.13-.2-.29 0-.43 0a1.06 1.06 0 0 0 -.5-.16c.18.15 0 .26-.13.36a.49.49 0 0 0 .09-.25c-.15.08-.12.27-.27.33a1.42 1.42 0 0 0 .07-.17c-.26 0-.15.29-.33.37l-.66.29-.59.57c.1.03.3-.11.5-.17zm4.09.67a.21.21 0 0 1 .31.12l.06-.08c0 .11 0 .16-.08.26l.07-.07c-.16.1-.41-.06-.57-.13h-.14c.11-.19.18-.03.34-.1zm-.44 0s0 0 0 .07a.57.57 0 0 1 -.25-.06l.1-.09zm-.23-.17v.1l-.1-.11s-.01-.08.09-.02z"/><path d="m151.74 80c-.1-.07-.12 0-.15 0l.1.11z"/><path d="m152 80.25s0 0 0-.07l-.15-.08-.1.09a.57.57 0 0 0 .25.06z"/><path d="m196.9 83.87c0 .07-.12.21-.13.29s.12.11.12.15c0 .23-.23.25 0 .43s.3.16.32-.08.21 0 .24-.25l.09-.75c.06-.51-.52-.2-.66-.11l-.15-.06c-.14.27.13.19.17.38z"/><path d="m216.24 49.49-.7.47a3.1 3.1 0 0 0 1.15.18l-.11-.39 1.38-.33c-.25-.17-.42-.32-.72-.24a1.76 1.76 0 0 1 -.86.13 2.8 2.8 0 0 0 -1.65.23l.64.17z"/><path d="m218.21 59.86a1.68 1.68 0 0 0 1.09.58c.38 0 1.16.27 1.49 0-.52-.36-1-.67-1-1.41 0-.58.54-1.07.86-1.45s.37-.48.56-.72a3.2 3.2 0 0 1 .78-.5 5.13 5.13 0 0 1 1.2-.77c.58-.18 1.16-.34 1.74-.54.29-.1 1.44-.3 1.49-.82s-1.13-.36-1.35-.18a4 4 0 0 1 -1.58.63 3.38 3.38 0 0 0 -1.37.24 4.83 4.83 0 0 0 -1.31.55 12.43 12.43 0 0 0 -1 1l-.68.75c-.17.2-.08.32 0 .59 0 .11-.47.38-.55.44-.31.22 0 .24-.18.54s-.44.12-.46.41 0 .38.27.66z"/><path d="m219.25 49.89c-.54-.2-.56-.17-1 .21l.66.09z"/><path d="m221 49.2a2.94 2.94 0 0 0 -1-.22c-.48 0-.65 0-1 .34l1 .25a2 2 0 0 0 1-.37z"/><path d="m221.3 48.6-.38-.34.78-.19c-.43-.08-.6-.17-1 .09s-.57.4-.87.59l.8.11z"/><path d="m200.43 62.8a.74.74 0 0 0 -.18 0 .73.73 0 0 0 0 .25l.46-.48c-.11-.03-.22.07-.28.23z"/><path d="m202.88 60.92a.57.57 0 0 0 -.22 0v.15c.17.1.24.03.22-.15z"/><path d="m203.24 61a1.56 1.56 0 0 0 1.1-.59c-.22 0-.22.19-.39.28a1.72 1.72 0 0 1 -.56.06c.09.14 0 .25-.15.25z"/><path d="m203.92 60.65c.11-.11.23-.16.24-.32-.16.09-.13.18-.33.13a.8.8 0 0 0 -.4 0c.06.28.27.2.49.19z"/><path d="m221.57 60.69-.28.17c.08.2.69.71.91.52s-.53-.61-.63-.69z"/><path d="m227.13 57.63c-.31 0-.23.17-.26.5l.82-.15a.49.49 0 0 0 -.56-.35z"/><path d="m216.49 62.28c.16.16.64-.27.76-.35a1.12 1.12 0 0 0 -.62-.31c-.36.14-.47.38-.14.66z"/><path d="m202 72c-.16-.18 0-.28.1-.43-.49-.12-.53.37-.51.76a1 1 0 0 1 .41-.33z"/><path d="m198.31 73.69c.2 0 .17.16.21.36 0-.24 0-.48.28-.51-.06 0-.09-.12-.15-.16.67-.14-.42-.75-.1-.11-.14 0-.19-.08-.12-.22a.44.44 0 0 0 -.17 0 .2.2 0 0 1 -.12.25c-.04.16 0 .4.17.39z"/><path d="m222 50.29c-.1-.23-.33-.08-.5 0a2.26 2.26 0 0 0 .23.18z"/><path d="m221.29 49.68c-.12 0-1.39.05-1.26.41s1 .08 1.29 0c0 0-.07-.12-.12-.17l.46-.07z"/><path d="m221.83 49.71c.18 0 .28-.05.39.09s.69-.11.87-.31-.25-.57-.48-.51a4.67 4.67 0 0 0 -1 .38c.04.17.04.36.22.35z"/><path d="m223.52 49.46 1-.22c.3-.07.2-.19.19-.52-.11 0-.38 0-.47 0s-.09.3-.19.35c-.25.14-.51-.23-.7.15a1.49 1.49 0 0 0 .17.24z"/></g><path d="m207.56 129.38c-21.86-4.23-37.14-22.94-42.73-43.71-4.35-16.15-2.43-33.81 8.2-46.23a54.3 54.3 0 1 0 58.26 88.93 52.24 52.24 0 0 1 -23.73 1.01z" fill="#6dc3da" opacity=".6"/><path d="m147.22 196.12v19.33" fill="none" stroke="#42210b" stroke-miterlimit="10"/><circle cx="146.83" cy="213" fill="#42210b" r="3.22"/><path d="m203.76 163.16-94.76-54.61a4.28 4.28 0 0 0 -6.41 3.71v56.8a3.55 3.55 0 0 0 1.78 3.08l101 58.32a2.29 2.29 0 0 0 3.44-2v-56.56a10.09 10.09 0 0 0 -5.05-8.74z" fill="#68e1fd"/><path d="m109 112.84 91.9 52.88a6.44 6.44 0 0 1 3.23 5.59v42.58a2.33 2.33 0 0 1 -3.48 2l-93.75-53.77a2.29 2.29 0 0 1 -1.15-2v-45.41a2.16 2.16 0 0 1 3.25-1.87z" fill="#fff"/><ellipse cx="147.22" cy="190.91" fill="#ab643c" rx="2" ry="2.28" transform="matrix(.98195871 -.18909544 .18909544 .98195871 -33.46 31.3)"/><path d="m94.31 181c-4.72-3-9.3-6.91-14.35-9.53l-13.75 8 18.49 10.8h.47a95.09 95.09 0 0 1 12.78-6.93c-1.22-.79-2.42-1.58-3.64-2.34z" fill="url(#b)" opacity=".63"/><path d="m58.66 158.43s-2.21 17.72 7.84 21.15 15.42-5.49 15.58-21.15" fill="#68e1fd"/><ellipse cx="70.37" cy="158.43" fill="#06577a" rx="11.71" ry="6.32"/><path d="m70.37 158.43s0-24.55-12.54-34.53c0 0-6.69 4-5 10.11s8.88 1.57 10.12 4.78-2.47 4.15.06 7.42 7.36 5.9 7.36 12.22z" fill="#99ce34"/><path d="m72.91 156.35s-1-28.46 5.3-36.91 10.47 3.15 7.62 8.33-7.81 3.88-6 8.33 4.87 6.78 1.38 8.69-8.55 7.95-8.3 11.56z" fill="#99ce34"/></svg>